<?xml version="1.0" encoding="UTF-8"?><svg id="Layer_2" xmlns="http://www.w3.org/2000/svg" viewBox="0 0 527.55 248.8"><defs><style>.cls-1{fill:#82e078;}</style></defs><g id="Layer_1-2"><g><path class="cls-1" d="M525.95,83.17c-1.91-22.03-14.12-32.86-36.22-33.35-28.98-.64-57.98-.34-86.97-.54-3.73-.02-5.17,1.59-5.12,5.18,.09,6.3,.08,12.6,0,18.9-.05,3.85,1.59,5.51,5.54,5.43,8.46-.16,16.93-.07,25.39-.05,18.73,.06,37.46-.03,56.18,.28,8.68,.14,13.1,4.34,14.63,12.84,.48,2.64,.46,5.37,.91,8.02,.75,4.36-1.11,5.22-5.22,5.18-24.13-.2-48.26-.18-72.39-.07-15.64,.07-24.49,6.46-26.85,20.25-2.13,12.47-1.99,25.18,.12,37.64,2.23,13.17,8.67,19.32,22.17,19.97,11.89,.58,23.79,.42,35.69,.29,4.67-.05,9.32,0,13.98,.08,6.21,.11,12.41,.26,18.63,.26,8.74,0,17.48,0,26.22-.03,10-.05,13.47-2.52,13.82-12.35,1.07-29.31,2.03-58.71-.5-87.95Zm-25.58,47.7c-.35,6.1,.01,12.24-.16,18.35-.16,5.89-1.76,7.43-7.41,7.44-20.16,.03-40.33,.04-60.49,0-7.7-.02-10.4-2.52-11.19-10.01-.08-.72-.19-1.43-.21-2.15-.51-16.05,2.39-18.38,16.54-17.91,8.81,.29,17.64,.05,26.46,.05,10.62,0,21.25,.12,31.86-.07,3.32-.06,4.81,.52,4.6,4.31Z"/><path class="cls-1" d="M282.63,49.83c-28.98-.64-57.98-.34-86.97-.54-3.73-.02-5.17,1.59-5.12,5.18,.09,6.3,.08,12.6,0,18.9-.05,3.85,1.59,5.51,5.54,5.43,8.46-.16,16.93-.07,25.39-.05,18.73,.06,37.46-.03,56.18,.28,8.68,.14,13.1,4.34,14.63,12.84,.48,2.64,.46,5.37,.91,8.02,.75,4.36-1.11,5.22-5.22,5.18-24.13-.2-48.26-.18-72.39-.07-15.64,.07-24.49,6.46-26.85,20.25-2.13,12.47-1.99,25.18,.12,37.64,2.23,13.17,8.67,19.32,22.17,19.97,11.89,.58,23.79,.42,35.69,.29,4.67-.05,9.32,0,13.98,.08,6.21,.11,12.41,.26,18.63,.26,8.74,0,17.48,0,26.22-.03,10-.05,13.47-2.52,13.82-12.35,1.07-29.31,2.03-58.71-.5-87.95-1.91-22.03-14.12-32.86-36.22-33.35Zm10.63,81.05c-.35,6.1,.01,12.24-.16,18.35-.16,5.89-1.76,7.43-7.41,7.44-20.16,.03-40.33,.04-60.49,0-7.7-.02-10.4-2.52-11.19-10.01-.08-.72-.19-1.43-.21-2.15-.51-16.05,2.39-18.38,16.54-17.91,8.81,.29,17.64,.05,26.46,.05,10.62,0,21.25,.12,31.86-.07,3.32-.06,4.81,.52,4.6,4.31Z"/><path class="cls-1" d="M370.74,5.45c-.12-3.6-1.51-5.67-5.6-5.43-4.49,.26-9,.05-13.5,.06-7.11,0-7.66,.52-7.66,7.64-.01,27.9,0,55.8,0,83.7,0,12.96,0,25.92,0,38.88,0,15.12-.01,30.24,0,45.36,0,7.26,.3,7.52,7.73,7.52,3.42,0,6.84,0,10.26,0,8.66,0,8.78-.11,8.78-8.7,0-55.08,0-110.16,0-165.23,0-1.26,.03-2.52,0-3.78Z"/><path class="cls-1" d="M116.87,206.61c-.08,.08-.16,.16-.24,.24h1.35c-.33-.04-.67-.14-1.04-.32l-.08,.08Z"/><g><path class="cls-1" d="M135.41,49.29c-1.21,0-2.09,.43-2.93,1.27-14.01,14.12-28.05,28.23-42.07,42.33,.12,1.18,.89,2,1.67,2.77,6.58,6.56,13.17,13.1,19.76,19.65,1.01-.91,2.06-1.78,3.01-2.73,14.16-14.15,28.3-28.32,42.47-42.46,6.69-6.68,13.43-13.3,20.17-19.98-.56-.48-.74-.75-.91-.75-13.72-.04-27.44-.05-41.16-.1Z"/><path class="cls-1" d="M102.42,125.45c-.12-.26-.28-.5-.49-.68-.21-.18-.45-.32-.73-.39-.99-.25-2.01,.34-2.26,1.34-.16,.61,.04,1.21,.42,1.65,.18,.21,.4,.36,.65,.48-.99,.99-1.97,1.95-2.96,2.95-.39,.4-.76,.79-1.15,1.19-.02-.27-.1-.52-.22-.74-.31-.58-.91-.99-1.62-.99-1.03,0-1.86,.83-1.86,1.86,0,.67,.38,1.24,.92,1.56,.26,.16,.55,.27,.88,.28-1.18,1.22-2.38,2.44-3.54,3.65,.5,.51,1.37,1.39,2.45,2.49,13.2,13.53,26.75,26.71,40.05,40.14,1.79,1.8,3.62,2.58,6.19,2.55,10.51-.13,21.01-.05,31.52-.05h6.51c-22-22.25-43.76-44.26-65.52-66.27-3.06,2.91-6.14,5.92-9.23,8.98Z"/><path class="cls-1" d="M107,115.71c.31,0,.6-.1,.85-.23,.59-.31,1-.91,1-1.62,0-1.03-.83-1.86-1.86-1.86-.72,0-1.32,.42-1.63,1.01-.13,.26-.23,.54-.23,.85,0,1.03,.83,1.86,1.86,1.86Z"/><path class="cls-1" d="M94.07,103.39c.45,0,.86-.18,1.18-.45,.41-.34,.68-.83,.68-1.4,0-1.03-.83-1.86-1.86-1.86-.57,0-1.07,.28-1.41,.69-.27,.32-.45,.72-.45,1.17,0,1.03,.83,1.86,1.86,1.86Z"/><path class="cls-1" d="M105.72,121.12c.89-.83,1.81-1.65,2.73-2.46-.34-.43-.85-.73-1.44-.73-1.03,0-1.86,.83-1.86,1.86,0,.52,.22,.99,.57,1.33Z"/><circle class="cls-1" cx="94.07" cy="107.47" r="1.86"/><path class="cls-1" d="M100.28,109.27c.42,.11,.84,.04,1.2-.13,.5-.22,.91-.64,1.06-1.21,.25-.99-.35-2.01-1.34-2.26-.89-.23-1.77,.25-2.13,1.07-.04,.09-.1,.17-.13,.27-.25,.99,.35,2.01,1.34,2.26Z"/><circle class="cls-1" cx="94.07" cy="113.85" r="1.86"/><path class="cls-1" d="M100.28,115.65c.99,.25,2.01-.34,2.26-1.34,.25-.99-.35-2.01-1.34-2.26-.99-.25-2.01,.34-2.26,1.34-.25,.99,.35,2.01,1.34,2.26Z"/><path class="cls-1" d="M94.07,121.65c1.03,0,1.86-.83,1.86-1.86s-.83-1.86-1.86-1.86-1.86,.83-1.86,1.86,.83,1.86,1.86,1.86Z"/><path class="cls-1" d="M100.28,121.59c.99,.25,2.01-.35,2.26-1.34,.25-.99-.35-2.01-1.34-2.26-.99-.25-2.01,.34-2.26,1.34-.25,.99,.35,2.01,1.34,2.26Z"/><circle class="cls-1" cx="94.07" cy="126.17" r="1.86"/><path class="cls-1" d="M81.13,87.35c-.45,0-.84,.18-1.16,.44-.41,.34-.69,.84-.69,1.41,0,1.03,.83,1.86,1.86,1.86,.58,0,1.07-.28,1.41-.69,.26-.32,.44-.72,.44-1.16,0-1.03-.83-1.86-1.86-1.86Z"/><path class="cls-1" d="M87.34,103.33c.99,.25,2.01-.35,2.26-1.34,.25-.99-.35-2.01-1.34-2.26-.99-.25-2.01,.34-2.26,1.34-.25,.99,.35,2.01,1.34,2.26Z"/><circle class="cls-1" cx="81.13" cy="107.47" r="1.86"/><path class="cls-1" d="M87.34,109.27c.99,.25,2.01-.34,2.26-1.34s-.35-2.01-1.34-2.26c-.99-.25-2.01,.34-2.26,1.34-.25,.99,.35,2.01,1.34,2.26Z"/><circle class="cls-1" cx="81.13" cy="113.85" r="1.86"/><path class="cls-1" d="M87.34,115.65c.99,.25,2.01-.34,2.26-1.34s-.35-2.01-1.34-2.26c-.99-.25-2.01,.34-2.26,1.34-.25,.99,.35,2.01,1.34,2.26Z"/><path class="cls-1" d="M68.19,75.03c-.29,0-.55,.08-.8,.2-.62,.3-1.06,.92-1.06,1.66,0,1.03,.83,1.86,1.86,1.86,.74,0,1.36-.44,1.66-1.06,.12-.24,.2-.51,.2-.8,0-1.03-.83-1.86-1.86-1.86Z"/><path class="cls-1" d="M74.41,115.65c.99,.25,2.01-.34,2.26-1.34s-.35-2.01-1.34-2.26c-.99-.25-2.01,.34-2.26,1.34-.25,.99,.35,2.01,1.34,2.26Z"/><path class="cls-1" d="M55.25,62.71c-.1,0-.18,.04-.27,.06-.89,.14-1.58,.87-1.58,1.8,0,1.03,.83,1.86,1.86,1.86,.93,0,1.66-.69,1.8-1.58,.02-.1,.06-.18,.06-.28,0-1.03-.83-1.86-1.86-1.86Z"/><path class="cls-1" d="M48.25,96.81c.1,.04,.17,.11,.28,.13,.99,.25,2.01-.34,2.26-1.34,.25-.99-.34-2.01-1.34-2.26-.99-.25-2.01,.34-2.26,1.34-.11,.42-.04,.82,.12,1.19,.18,.42,.5,.74,.94,.94Z"/><path class="cls-1" d="M81.13,93.29c-1.03,0-1.86,.83-1.86,1.86s.83,1.86,1.86,1.86,1.86-.83,1.86-1.86-.83-1.86-1.86-1.86Z"/><path class="cls-1" d="M87.34,96.95c.2,.05,.4,.04,.59,.03,.46-.03,.86-.23,1.18-.56,.22-.23,.41-.49,.49-.81,.25-.99-.35-2.01-1.34-2.26-.79-.2-1.57,.14-1.99,.79-.11,.17-.21,.35-.27,.55-.25,.99,.35,2.01,1.34,2.26Z"/><path class="cls-1" d="M81.13,99.67c-1.03,0-1.86,.83-1.86,1.86s.83,1.86,1.86,1.86c.18,0,.34-.05,.5-.1,.61-.17,1.08-.64,1.26-1.25,.05-.17,.1-.33,.1-.51,0-1.03-.83-1.86-1.86-1.86Z"/><path class="cls-1" d="M68.19,80.97c-1.03,0-1.86,.83-1.86,1.86s.83,1.86,1.86,1.86,1.86-.83,1.86-1.86-.83-1.86-1.86-1.86Z"/><path class="cls-1" d="M74.41,84.62c.69,.18,1.37-.08,1.82-.57,.2-.22,.36-.47,.44-.77,.25-.99-.35-2.01-1.34-2.26-.63-.16-1.24,.05-1.69,.45-.26,.24-.48,.52-.57,.89-.25,.99,.35,2.01,1.34,2.26Z"/><path class="cls-1" d="M68.19,87.35c-1.03,0-1.86,.83-1.86,1.86s.83,1.86,1.86,1.86,1.86-.83,1.86-1.86-.83-1.86-1.86-1.86Z"/><path class="cls-1" d="M74.41,91.01c.99,.25,2.01-.34,2.26-1.34s-.35-2.01-1.34-2.26c-.99-.25-2.01,.35-2.26,1.34-.25,.99,.35,2.01,1.34,2.26Z"/><path class="cls-1" d="M68.19,93.29c-1.03,0-1.86,.83-1.86,1.86s.83,1.86,1.86,1.86,1.86-.83,1.86-1.86-.83-1.86-1.86-1.86Z"/><path class="cls-1" d="M74.41,96.95c.99,.25,2.01-.34,2.26-1.34,.25-.99-.35-2.01-1.34-2.26-.99-.25-2.01,.34-2.26,1.34-.25,.99,.35,2.01,1.34,2.26Z"/><path class="cls-1" d="M68.19,99.67c-1.03,0-1.86,.83-1.86,1.86s.83,1.86,1.86,1.86,1.86-.83,1.86-1.86-.83-1.86-1.86-1.86Z"/><path class="cls-1" d="M74.41,103.33c.99,.25,2.01-.35,2.26-1.34,.25-.99-.35-2.01-1.34-2.26-.99-.25-2.01,.34-2.26,1.34-.25,.99,.35,2.01,1.34,2.26Z"/><path class="cls-1" d="M68.19,105.61c-1.03,0-1.86,.83-1.86,1.86s.83,1.86,1.86,1.86,1.86-.83,1.86-1.86-.83-1.86-1.86-1.86Z"/><path class="cls-1" d="M74.41,109.27c.52,.13,1.03,.03,1.45-.24h0c.18-.18,.36-.36,.54-.54,.12-.17,.22-.35,.27-.57,.25-.99-.35-2.01-1.34-2.26-.99-.25-2.01,.34-2.26,1.34-.25,.99,.35,2.01,1.34,2.26Z"/><path class="cls-1" d="M68.19,112c-1.03,0-1.86,.83-1.86,1.86s.83,1.86,1.86,1.86,1.86-.83,1.86-1.86-.83-1.86-1.86-1.86Z"/><path class="cls-1" d="M55.25,68.65c-1.03,0-1.86,.83-1.86,1.86s.83,1.86,1.86,1.86,1.86-.83,1.86-1.86-.83-1.86-1.86-1.86Z"/><path class="cls-1" d="M61.47,72.3c.85,.22,1.68-.21,2.07-.94,.07-.13,.15-.25,.19-.39,.25-.99-.35-2.01-1.34-2.26-.47-.12-.93-.04-1.32,.17-.45,.24-.8,.64-.94,1.17-.25,.99,.34,2.01,1.34,2.26Z"/><path class="cls-1" d="M55.25,75.03c-1.03,0-1.86,.83-1.86,1.86s.83,1.86,1.86,1.86,1.86-.83,1.86-1.86-.83-1.86-1.86-1.86Z"/><path class="cls-1" d="M61.47,78.69c.99,.25,2.01-.35,2.26-1.34,.25-.99-.35-2.01-1.34-2.26-.99-.25-2.01,.35-2.26,1.34-.25,.99,.34,2.01,1.34,2.26Z"/><path class="cls-1" d="M55.25,80.97c-1.03,0-1.86,.83-1.86,1.86s.83,1.86,1.86,1.86,1.86-.83,1.86-1.86-.83-1.86-1.86-1.86Z"/><path class="cls-1" d="M61.47,84.62c.99,.25,2.01-.34,2.26-1.34,.25-.99-.35-2.01-1.34-2.26-.99-.25-2.01,.34-2.26,1.34-.25,.99,.34,2.01,1.34,2.26Z"/><path class="cls-1" d="M55.25,87.35c-1.03,0-1.86,.83-1.86,1.86s.83,1.86,1.86,1.86,1.86-.83,1.86-1.86-.83-1.86-1.86-1.86Z"/><path class="cls-1" d="M61.47,91.01c.99,.25,2.01-.34,2.26-1.34,.25-.99-.35-2.01-1.34-2.26-.99-.25-2.01,.35-2.26,1.34-.25,.99,.34,2.01,1.34,2.26Z"/><path class="cls-1" d="M55.25,93.29c-1.03,0-1.86,.83-1.86,1.86s.83,1.86,1.86,1.86,1.86-.83,1.86-1.86-.83-1.86-1.86-1.86Z"/><path class="cls-1" d="M61.47,96.95c.99,.25,2.01-.34,2.26-1.34,.25-.99-.35-2.01-1.34-2.26-.99-.25-2.01,.34-2.26,1.34-.25,.99,.34,2.01,1.34,2.26Z"/><path class="cls-1" d="M55.25,99.67c-1.03,0-1.86,.83-1.86,1.86,0,.19,.06,.36,.11,.53,.18,.59,.63,1.04,1.22,1.22,.17,.05,.34,.11,.53,.11,1.03,0,1.86-.83,1.86-1.86s-.83-1.86-1.86-1.86Z"/><path class="cls-1" d="M61.47,103.33c.99,.25,2.01-.35,2.26-1.34,.25-.99-.35-2.01-1.34-2.26-.99-.25-2.01,.34-2.26,1.34-.25,.99,.34,2.01,1.34,2.26Z"/><path class="cls-1" d="M61.47,109.27c.99,.25,2.01-.34,2.26-1.34s-.35-2.01-1.34-2.26c-.99-.25-2.01,.34-2.26,1.34-.25,.99,.34,2.01,1.34,2.26Z"/><path class="cls-1" d="M42.32,56.32c-1.03,0-1.86,.83-1.86,1.86s.83,1.86,1.86,1.86,1.86-.83,1.86-1.86-.83-1.86-1.86-1.86Z"/><path class="cls-1" d="M48.53,59.98c.99,.25,2.01-.35,2.26-1.34,0-.03,0-.05,0-.08,.2-.97-.38-1.93-1.34-2.18-.28-.07-.56-.06-.83,0-.67,.14-1.25,.63-1.43,1.34-.25,.99,.34,2.01,1.34,2.26Z"/><path class="cls-1" d="M42.32,62.71c-1.03,0-1.86,.83-1.86,1.86s.83,1.86,1.86,1.86,1.86-.83,1.86-1.86-.83-1.86-1.86-1.86Z"/><path class="cls-1" d="M48.53,66.37c.99,.25,2.01-.34,2.26-1.34,.25-.99-.34-2.01-1.34-2.26-.99-.25-2.01,.35-2.26,1.34-.25,.99,.34,2.01,1.34,2.26Z"/><path class="cls-1" d="M42.32,68.65c-1.03,0-1.86,.83-1.86,1.86s.83,1.86,1.86,1.86,1.86-.83,1.86-1.86-.83-1.86-1.86-1.86Z"/><path class="cls-1" d="M48.53,72.3c.99,.25,2.01-.35,2.26-1.34,.25-.99-.34-2.01-1.34-2.26-.99-.25-2.01,.34-2.26,1.34-.25,.99,.34,2.01,1.34,2.26Z"/><circle class="cls-1" cx="42.32" cy="76.89" r="1.86"/><path class="cls-1" d="M48.53,78.69c.99,.25,2.01-.35,2.26-1.34,.25-.99-.34-2.01-1.34-2.26-.99-.25-2.01,.35-2.26,1.34-.25,.99,.34,2.01,1.34,2.26Z"/><path class="cls-1" d="M42.32,80.97c-1.03,0-1.86,.83-1.86,1.86s.83,1.86,1.86,1.86,1.86-.83,1.86-1.86-.83-1.86-1.86-1.86Z"/><path class="cls-1" d="M48.53,84.62c.99,.25,2.01-.34,2.26-1.34,.25-.99-.34-2.01-1.34-2.26-.99-.25-2.01,.34-2.26,1.34-.25,.99,.34,2.01,1.34,2.26Z"/><path class="cls-1" d="M42.32,87.35c-.97,0-1.74,.75-1.83,1.7,0,.05-.03,.1-.03,.16,0,1.03,.83,1.86,1.86,1.86,.06,0,.1-.03,.16-.03,.95-.08,1.7-.86,1.7-1.83,0-1.03-.83-1.86-1.86-1.86Z"/><path class="cls-1" d="M48.53,91.01c.99,.25,2.01-.34,2.26-1.34,.25-.99-.34-2.01-1.34-2.26-.99-.25-2.01,.35-2.26,1.34-.25,.99,.34,2.01,1.34,2.26Z"/><path class="cls-1" d="M29.38,56.32c-1.03,0-1.86,.83-1.86,1.86s.83,1.86,1.86,1.86,1.86-.83,1.86-1.86-.83-1.86-1.86-1.86Z"/><path class="cls-1" d="M34.25,57.72c-.25,.99,.35,2.01,1.34,2.26,.99,.25,2.01-.35,2.26-1.34,.25-.99-.35-2.01-1.34-2.26-.99-.25-2.01,.34-2.26,1.34Z"/><path class="cls-1" d="M29.38,62.71c-1.03,0-1.86,.83-1.86,1.86s.83,1.86,1.86,1.86,1.86-.83,1.86-1.86-.83-1.86-1.86-1.86Z"/><path class="cls-1" d="M36.51,62.77c-.99-.25-2.01,.35-2.26,1.34-.25,.99,.35,2.01,1.34,2.26,.99,.25,2.01-.34,2.26-1.34,.25-.99-.35-2.01-1.34-2.26Z"/><path class="cls-1" d="M29.38,68.65c-1.03,0-1.86,.83-1.86,1.86s.83,1.86,1.86,1.86,1.86-.83,1.86-1.86-.83-1.86-1.86-1.86Z"/><path class="cls-1" d="M36.51,68.7c-.99-.25-2.01,.34-2.26,1.34-.25,.99,.35,2.01,1.34,2.26,.99,.25,2.01-.35,2.26-1.34,.25-.99-.35-2.01-1.34-2.26Z"/><path class="cls-1" d="M29.38,75.03c-.79,0-1.45,.5-1.72,1.19-.08,.21-.13,.43-.13,.67,0,1.03,.83,1.86,1.86,1.86,.24,0,.46-.05,.67-.13,.69-.27,1.19-.93,1.19-1.72,0-1.03-.83-1.86-1.86-1.86Z"/><path class="cls-1" d="M36.51,75.09c-.99-.25-2.01,.35-2.26,1.34-.25,.99,.35,2.01,1.34,2.26,.99,.25,2.01-.35,2.26-1.34,.25-.99-.35-2.01-1.34-2.26Z"/><path class="cls-1" d="M36.51,81.02c-.99-.25-2.01,.34-2.26,1.34-.04,.15-.02,.29-.02,.43-.01,.84,.51,1.61,1.36,1.83,.17,.04,.33,.03,.49,.03,.81-.02,1.55-.54,1.77-1.36,.25-.99-.35-2.01-1.34-2.26Z"/><path class="cls-1" d="M16.44,56.32c-1.03,0-1.86,.83-1.86,1.86s.83,1.86,1.86,1.86,1.86-.83,1.86-1.86-.83-1.86-1.86-1.86Z"/><path class="cls-1" d="M21.32,57.72c-.25,.99,.35,2.01,1.34,2.26,.99,.25,2.01-.35,2.26-1.34,.25-.99-.35-2.01-1.34-2.26-.99-.25-2.01,.34-2.26,1.34Z"/><path class="cls-1" d="M16.44,62.71c-.65,0-1.19,.35-1.52,.85-.2,.29-.34,.63-.34,1.01,0,1.03,.83,1.86,1.86,1.86,.38,0,.72-.14,1.02-.34,.49-.33,.84-.87,.84-1.51,0-1.03-.83-1.86-1.86-1.86Z"/><path class="cls-1" d="M23.58,62.77c-.99-.25-2.01,.35-2.26,1.34-.25,.99,.35,2.01,1.34,2.26,.99,.25,2.01-.34,2.26-1.34,.25-.99-.35-2.01-1.34-2.26Z"/><path class="cls-1" d="M23.58,68.7c-.96-.25-1.92,.31-2.22,1.25-.01,.03-.04,.06-.04,.09-.25,.99,.35,2.01,1.34,2.26,.35,.09,.69,.04,1.02-.06,.59-.19,1.08-.64,1.24-1.28,.25-.99-.35-2.01-1.34-2.26Z"/><path class="cls-1" d="M8.6,57.26c-.09,.15-.18,.29-.22,.46-.25,.99,.35,2.01,1.34,2.26,.5,.13,1,.04,1.4-.2,.41-.24,.73-.64,.86-1.14,.25-.99-.35-2.01-1.34-2.26-.82-.21-1.63,.18-2.04,.88Z"/><path class="cls-1" d="M2.8,53.11c.41-.24,.73-.64,.86-1.14,.25-.99-.35-2.01-1.34-2.26-.82-.21-1.63,.18-2.04,.88-.09,.15-.18,.29-.22,.46-.25,.99,.35,2.01,1.34,2.26,.5,.13,1,.04,1.4-.2Z"/><path class="cls-1" d="M35.85,51.51c0-1.03-.83-1.86-1.86-1.86s-1.86,.83-1.86,1.86,.83,1.86,1.86,1.86,1.86-.83,1.86-1.86Z"/><path class="cls-1" d="M42.47,51.97s0-.05,0-.08c.2-.97-.38-1.93-1.34-2.18-.28-.07-.56-.06-.83,0-.67,.14-1.25,.63-1.43,1.34-.25,.99,.34,2.01,1.34,2.26,.99,.25,2.01-.35,2.26-1.34Z"/><path class="cls-1" d="M22.92,51.51c0-1.03-.83-1.86-1.86-1.86s-1.86,.83-1.86,1.86,.83,1.86,1.86,1.86,1.86-.83,1.86-1.86Z"/><path class="cls-1" d="M29.53,51.97c.25-.99-.35-2.01-1.34-2.26-.99-.25-2.01,.34-2.26,1.34-.25,.99,.34,2.01,1.34,2.26,.99,.25,2.01-.35,2.26-1.34Z"/><path class="cls-1" d="M9.98,51.51c0-1.03-.83-1.86-1.86-1.86s-1.86,.83-1.86,1.86,.83,1.86,1.86,1.86,1.86-.83,1.86-1.86Z"/><path class="cls-1" d="M16.6,51.97c.25-.99-.35-2.01-1.34-2.26-.99-.25-2.01,.34-2.26,1.34-.25,.99,.34,2.01,1.34,2.26,.99,.25,2.01-.35,2.26-1.34Z"/><path class="cls-1" d="M81.13,117.93c-1.03,0-1.86,.83-1.86,1.86s.83,1.86,1.86,1.86,1.86-.83,1.86-1.86-.83-1.86-1.86-1.86Z"/><path class="cls-1" d="M87.34,121.59c.99,.25,2.01-.35,2.26-1.34,.25-.99-.35-2.01-1.34-2.26-.99-.25-2.01,.34-2.26,1.34-.25,.99,.35,2.01,1.34,2.26Z"/><circle class="cls-1" cx="81.13" cy="126.17" r="1.86"/><path class="cls-1" d="M87.34,127.97c.99,.25,2.01-.34,2.26-1.34,.25-.99-.35-2.01-1.34-2.26-.99-.25-2.01,.34-2.26,1.34-.25,.99,.35,2.01,1.34,2.26Z"/><path class="cls-1" d="M81.4,130.31c-.09-.01-.17-.05-.27-.05-1.03,0-1.86,.83-1.86,1.86s.83,1.86,1.86,1.86,1.86-.83,1.86-1.86c0-.06-.03-.11-.03-.17-.08-.85-.72-1.51-1.55-1.63Z"/><path class="cls-1" d="M87.34,133.91c.99,.25,2.01-.35,2.26-1.34s-.35-2.01-1.34-2.26c-.99-.25-2.01,.34-2.26,1.34-.25,.99,.35,2.01,1.34,2.26Z"/><path class="cls-1" d="M88.27,136.7c-.16-.04-.32-.03-.48-.02-.82,0-1.57,.53-1.78,1.36-.18,.72,.09,1.45,.63,1.89,.2,.17,.44,.3,.71,.37,.99,.25,2.01-.34,2.26-1.34,.1-.39,.04-.78-.1-1.13-.21-.53-.64-.98-1.24-1.13Z"/><path class="cls-1" d="M82.97,144.35c0-.19-.05-.38-.11-.55-.26-.71-.93-1.22-1.73-1.22-1.03,0-1.86,.83-1.86,1.86,0,.8,.51,1.46,1.21,1.73,.18,.07,.36,.1,.56,.11h.01s.05,.02,.07,.02c1.03,0,1.86-.83,1.86-1.86,0-.02-.01-.04-.01-.07v-.02Z"/><path class="cls-1" d="M68.87,118.07c-.21-.08-.43-.13-.67-.13h0c-1.03,0-1.86,.83-1.86,1.86,0,0,0,.02,0,.02,.01,1.01,.84,1.83,1.85,1.83s1.86-.83,1.86-1.86c0-.33-.11-.62-.26-.89-.21-.37-.52-.68-.93-.84Z"/><path class="cls-1" d="M74.41,121.59c.99,.25,2.01-.35,2.26-1.34,.25-.99-.35-2.01-1.34-2.26-.99-.25-2.01,.34-2.26,1.34-.25,.99,.35,2.01,1.34,2.26Z"/><path class="cls-1" d="M29.38,154.9c-1.03,0-1.86,.83-1.86,1.86,0,.63,.33,1.16,.81,1.5,.3,.21,.65,.36,1.04,.36,1.03,0,1.86-.83,1.86-1.86,0-.4-.16-.76-.37-1.06-.34-.47-.86-.8-1.48-.8Z"/><path class="cls-1" d="M23.58,161.34c-.99-.25-2.01,.34-2.26,1.34-.19,.76,.11,1.52,.71,1.96,.19,.14,.4,.24,.63,.3,.99,.25,2.01-.35,2.26-1.34,.14-.57,0-1.12-.33-1.55-.24-.33-.58-.6-1.01-.71Z"/><path class="cls-1" d="M16.44,167.22c-1.03,0-1.86,.83-1.86,1.86,0,.84,.56,1.52,1.32,1.75,.17,.05,.35,.11,.54,.11,1.03,0,1.86-.83,1.86-1.86,0-.2-.06-.38-.11-.56-.24-.75-.92-1.3-1.74-1.3Z"/><path class="cls-1" d="M10.64,173.66c-.99-.25-2.01,.34-2.26,1.34-.24,.95,.3,1.9,1.22,2.2,.04,.01,.08,.05,.12,.06,.99,.25,2.01-.35,2.26-1.34,.09-.37,.04-.72-.07-1.05-.2-.57-.64-1.05-1.26-1.21Z"/><path class="cls-1" d="M3.5,179.54c-1.03,0-1.86,.83-1.86,1.86s.83,1.86,1.86,1.86c.9,0,1.61-.65,1.79-1.5-.05-.02-.09-.03-.14-.05l.19-.19s.02-.07,.02-.11c0-1.03-.83-1.86-1.86-1.86Z"/><circle class="cls-1" cx="81.13" cy="138.5" r="1.86"/><path class="cls-1" d="M68.19,124.32c-1.03,0-1.86,.83-1.86,1.86s.83,1.86,1.86,1.86,1.86-.83,1.86-1.86-.83-1.86-1.86-1.86Z"/><path class="cls-1" d="M75.94,124.67c-.18-.13-.38-.24-.61-.3-.99-.25-2.01,.34-2.26,1.34-.25,.99,.35,2.01,1.34,2.26,.99,.25,2.01-.34,2.26-1.34,.16-.62-.04-1.23-.44-1.68-.1-.1-.19-.19-.28-.29Z"/><path class="cls-1" d="M68.19,130.25c-1.03,0-1.86,.83-1.86,1.86s.83,1.86,1.86,1.86,1.86-.83,1.86-1.86-.83-1.86-1.86-1.86Z"/><path class="cls-1" d="M75.33,130.31c-.99-.25-2.01,.34-2.26,1.34-.25,.99,.35,2.01,1.34,2.26,.99,.25,2.01-.35,2.26-1.34s-.35-2.01-1.34-2.26Z"/><path class="cls-1" d="M68.19,136.64c-1.03,0-1.86,.83-1.86,1.86s.83,1.86,1.86,1.86,1.86-.83,1.86-1.86-.83-1.86-1.86-1.86Z"/><path class="cls-1" d="M75.33,136.7c-.99-.25-2.01,.35-2.26,1.34-.25,.99,.35,2.01,1.34,2.26,.99,.25,2.01-.34,2.26-1.34,.25-.99-.35-2.01-1.34-2.26Z"/><path class="cls-1" d="M68.19,142.58c-1.03,0-1.86,.83-1.86,1.86s.83,1.86,1.86,1.86,1.86-.83,1.86-1.86-.83-1.86-1.86-1.86Z"/><path class="cls-1" d="M75.33,142.63c-.99-.25-2.01,.35-2.26,1.34-.25,.99,.35,2.01,1.34,2.26,.99,.25,2.01-.35,2.26-1.34s-.35-2.01-1.34-2.26Z"/><path class="cls-1" d="M68.19,148.96c-1.03,0-1.86,.83-1.86,1.86s.83,1.86,1.86,1.86,1.86-.83,1.86-1.86-.83-1.86-1.86-1.86Z"/><path class="cls-1" d="M75.33,149.02c-.99-.25-2.01,.35-2.26,1.34-.23,.89,.25,1.77,1.06,2.13,.09,.04,.17,.11,.28,.13,.99,.25,2.01-.34,2.26-1.34,.11-.42,.04-.83-.13-1.19-.22-.51-.64-.92-1.21-1.07Z"/><path class="cls-1" d="M68.19,154.9c-1.03,0-1.86,.83-1.86,1.86,0,.96,.74,1.73,1.68,1.82,.06,0,.12,.04,.18,.04,1.03,0,1.86-.83,1.86-1.86,0-.06-.03-.11-.03-.17-.09-.94-.86-1.68-1.82-1.68Z"/><path class="cls-1" d="M62.39,124.38c-.18-.05-.36-.03-.53-.03-.8,.03-1.52,.55-1.73,1.37-.03,.14-.02,.27-.02,.4-.03,.85,.5,1.64,1.36,1.86,.99,.25,2.01-.34,2.26-1.34,.25-.99-.35-2.01-1.34-2.26Z"/><path class="cls-1" d="M55.89,130.38c-.2-.07-.41-.13-.64-.13-1.03,0-1.86,.83-1.86,1.86,0,.23,.05,.45,.13,.66,.27,.7,.93,1.2,1.72,1.2,1.03,0,1.86-.83,1.86-1.86,0-.8-.51-1.47-1.22-1.73Z"/><path class="cls-1" d="M61.47,133.91c.99,.25,2.01-.35,2.26-1.34,.25-.99-.35-2.01-1.34-2.26-.99-.25-2.01,.34-2.26,1.34-.25,.99,.34,2.01,1.34,2.26Z"/><path class="cls-1" d="M55.25,136.64c-1.03,0-1.86,.83-1.86,1.86s.83,1.86,1.86,1.86,1.86-.83,1.86-1.86-.83-1.86-1.86-1.86Z"/><path class="cls-1" d="M61.47,140.3c.99,.25,2.01-.34,2.26-1.34,.25-.99-.35-2.01-1.34-2.26-.99-.25-2.01,.35-2.26,1.34-.25,.99,.34,2.01,1.34,2.26Z"/><path class="cls-1" d="M55.25,142.58c-1.03,0-1.86,.83-1.86,1.86s.83,1.86,1.86,1.86,1.86-.83,1.86-1.86-.83-1.86-1.86-1.86Z"/><path class="cls-1" d="M61.47,146.23c.99,.25,2.01-.35,2.26-1.34,.25-.99-.35-2.01-1.34-2.26-.99-.25-2.01,.35-2.26,1.34-.25,.99,.34,2.01,1.34,2.26Z"/><path class="cls-1" d="M55.25,148.96c-1.03,0-1.86,.83-1.86,1.86s.83,1.86,1.86,1.86,1.86-.83,1.86-1.86-.83-1.86-1.86-1.86Z"/><path class="cls-1" d="M61.47,152.62c.99,.25,2.01-.34,2.26-1.34,.25-.99-.35-2.01-1.34-2.26-.99-.25-2.01,.35-2.26,1.34-.25,.99,.34,2.01,1.34,2.26Z"/><path class="cls-1" d="M55.25,154.9c-1.03,0-1.86,.83-1.86,1.86s.83,1.86,1.86,1.86,1.86-.83,1.86-1.86-.83-1.86-1.86-1.86Z"/><path class="cls-1" d="M61.47,158.55c.99,.25,2.01-.34,2.26-1.34,.25-.99-.35-2.01-1.34-2.26-.99-.25-2.01,.34-2.26,1.34-.25,.99,.34,2.01,1.34,2.26Z"/><path class="cls-1" d="M55.25,161.28c-1.03,0-1.86,.83-1.86,1.86s.83,1.86,1.86,1.86,1.86-.83,1.86-1.86-.83-1.86-1.86-1.86Z"/><path class="cls-1" d="M62.39,161.34c-.99-.25-2.01,.34-2.26,1.34-.25,.99,.34,2.01,1.34,2.26,.06,.01,.11,0,.17,0,.94,.15,1.85-.41,2.09-1.35,.07-.26,.07-.52,.03-.77-.12-.7-.63-1.3-1.36-1.49Z"/><path class="cls-1" d="M55.25,167.22c-1.03,0-1.86,.83-1.86,1.86s.83,1.86,1.86,1.86c.18,0,.35-.06,.52-.1,.6-.18,1.06-.64,1.24-1.24,.05-.17,.1-.33,.1-.51,0-1.03-.83-1.86-1.86-1.86Z"/><path class="cls-1" d="M49.58,136.76s-.08-.05-.13-.06c-.99-.25-2.01,.35-2.26,1.34-.09,.37-.04,.73,.08,1.06,.2,.57,.64,1.04,1.26,1.2,.99,.25,2.01-.34,2.26-1.34,.24-.94-.3-1.88-1.21-2.2Z"/><path class="cls-1" d="M43.43,142.98c-.31-.24-.69-.41-1.11-.41-1.03,0-1.86,.83-1.86,1.86,0,.43,.17,.81,.42,1.13,.34,.43,.84,.73,1.44,.73,1.03,0,1.86-.83,1.86-1.86,0-.6-.3-1.11-.74-1.45Z"/><path class="cls-1" d="M49.45,142.63c-.99-.25-2.01,.35-2.26,1.34-.25,.99,.34,2.01,1.34,2.26,.99,.25,2.01-.35,2.26-1.34,.25-.99-.34-2.01-1.34-2.26Z"/><circle class="cls-1" cx="42.32" cy="150.82" r="1.86"/><path class="cls-1" d="M49.45,149.02c-.99-.25-2.01,.35-2.26,1.34-.25,.99,.34,2.01,1.34,2.26,.99,.25,2.01-.34,2.26-1.34,.25-.99-.34-2.01-1.34-2.26Z"/><path class="cls-1" d="M42.32,154.9c-1.03,0-1.86,.83-1.86,1.86s.83,1.86,1.86,1.86,1.86-.83,1.86-1.86-.83-1.86-1.86-1.86Z"/><path class="cls-1" d="M49.45,154.96c-.99-.25-2.01,.34-2.26,1.34-.25,.99,.34,2.01,1.34,2.26,.99,.25,2.01-.34,2.26-1.34,.25-.99-.34-2.01-1.34-2.26Z"/><circle class="cls-1" cx="42.32" cy="163.14" r="1.86"/><path class="cls-1" d="M49.45,161.34c-.99-.25-2.01,.34-2.26,1.34-.25,.99,.34,2.01,1.34,2.26,.99,.25,2.01-.35,2.26-1.34,.25-.99-.34-2.01-1.34-2.26Z"/><path class="cls-1" d="M42.32,167.22c-1.03,0-1.86,.83-1.86,1.86s.83,1.86,1.86,1.86,1.86-.83,1.86-1.86-.83-1.86-1.86-1.86Z"/><path class="cls-1" d="M49.45,167.28c-.99-.25-2.01,.34-2.26,1.34-.25,.99,.34,2.01,1.34,2.26,.99,.25,2.01-.34,2.26-1.34,.25-.99-.34-2.01-1.34-2.26Z"/><circle class="cls-1" cx="42.32" cy="175.46" r="1.86"/><path class="cls-1" d="M49.45,173.66c-.99-.25-2.01,.34-2.26,1.34-.25,.99,.34,2.01,1.34,2.26,.28,.07,.55,.06,.81,.01,.68-.13,1.27-.63,1.45-1.35,0-.04,0-.07,0-.11,.18-.96-.39-1.91-1.34-2.15Z"/><path class="cls-1" d="M42.32,179.54c-1.03,0-1.86,.83-1.86,1.86,0,.27,.06,.52,.16,.75,.29,.65,.94,1.11,1.7,1.11,.97,0,1.75-.76,1.83-1.71,0-.05,.03-.1,.03-.15,0-1.03-.83-1.86-1.86-1.86Z"/><path class="cls-1" d="M37.16,149.33c-.19-.14-.4-.25-.64-.31-.99-.25-2.01,.35-2.26,1.34-.15,.57,.01,1.13,.34,1.56,.24,.32,.57,.59,1,.7,.99,.25,2.01-.34,2.26-1.34,.19-.75-.11-1.51-.7-1.95Z"/><path class="cls-1" d="M36.51,154.96c-.99-.25-2.01,.34-2.26,1.34-.25,.99,.35,2.01,1.34,2.26,.99,.25,2.01-.34,2.26-1.34,.25-.99-.35-2.01-1.34-2.26Z"/><path class="cls-1" d="M29.38,161.28c-1.03,0-1.86,.83-1.86,1.86s.83,1.86,1.86,1.86,1.86-.83,1.86-1.86-.83-1.86-1.86-1.86Z"/><path class="cls-1" d="M36.51,161.34c-.99-.25-2.01,.34-2.26,1.34-.25,.99,.35,2.01,1.34,2.26,.99,.25,2.01-.35,2.26-1.34,.25-.99-.35-2.01-1.34-2.26Z"/><path class="cls-1" d="M29.38,167.22c-1.03,0-1.86,.83-1.86,1.86s.83,1.86,1.86,1.86,1.86-.83,1.86-1.86-.83-1.86-1.86-1.86Z"/><path class="cls-1" d="M36.51,167.28c-.99-.25-2.01,.34-2.26,1.34-.25,.99,.35,2.01,1.34,2.26,.99,.25,2.01-.34,2.26-1.34,.25-.99-.35-2.01-1.34-2.26Z"/><path class="cls-1" d="M29.38,173.6c-1.03,0-1.86,.83-1.86,1.86s.83,1.86,1.86,1.86,1.86-.83,1.86-1.86-.83-1.86-1.86-1.86Z"/><path class="cls-1" d="M36.51,173.66c-.99-.25-2.01,.34-2.26,1.34-.25,.99,.35,2.01,1.34,2.26,.99,.25,2.01-.35,2.26-1.34,.25-.99-.35-2.01-1.34-2.26Z"/><path class="cls-1" d="M29.38,179.54c-1.03,0-1.86,.83-1.86,1.86,0,.24,.05,.47,.14,.68,.27,.69,.94,1.17,1.72,1.17s1.44-.48,1.72-1.16c.09-.22,.14-.45,.14-.7,0-1.03-.83-1.86-1.86-1.86Z"/><path class="cls-1" d="M36.51,179.6c-.99-.25-2.01,.34-2.26,1.34-.11,.41-.04,.82,.12,1.18,.22,.51,.64,.93,1.22,1.08,.89,.23,1.77-.25,2.13-1.07,.04-.09,.11-.17,.13-.27,.25-.99-.35-2.01-1.34-2.26Z"/><path class="cls-1" d="M23.58,167.28c-.99-.25-2.01,.34-2.26,1.34-.25,.99,.35,2.01,1.34,2.26,.99,.25,2.01-.34,2.26-1.34,.25-.99-.35-2.01-1.34-2.26Z"/><circle class="cls-1" cx="16.44" cy="175.46" r="1.86"/><path class="cls-1" d="M23.58,173.66c-.99-.25-2.01,.34-2.26,1.34-.25,.99,.35,2.01,1.34,2.26,.99,.25,2.01-.35,2.26-1.34,.25-.99-.35-2.01-1.34-2.26Z"/><path class="cls-1" d="M16.44,179.54c-1.03,0-1.86,.83-1.86,1.86,0,.25,.05,.48,.14,.7,.28,.68,.94,1.16,1.72,1.16s1.44-.48,1.72-1.17c.09-.21,.14-.45,.14-.69,0-1.03-.83-1.86-1.86-1.86Z"/><path class="cls-1" d="M23.58,179.6c-.99-.25-2.01,.34-2.26,1.34-.1,.4-.04,.79,.11,1.15,.21,.53,.64,.96,1.23,1.11,.91,.23,1.81-.27,2.15-1.12,.03-.08,.09-.14,.11-.22,.25-.99-.35-2.01-1.34-2.26Z"/><path class="cls-1" d="M10.64,179.6c-.99-.25-2.01,.34-2.26,1.34-.1,.41-.04,.8,.11,1.16,.22,.52,.64,.95,1.23,1.1,.9,.23,1.79-.26,2.14-1.1,.03-.08,.09-.15,.12-.24,.25-.99-.35-2.01-1.34-2.26Z"/></g><g><path class="cls-1" d="M1.16,239.12c-.32,0-.57-.09-.75-.29-.18-.19-.26-.43-.26-.73v-28.74c0-.32,.09-.58,.26-.77,.18-.19,.42-.29,.75-.29H11.9c3.32,0,5.94,.78,7.88,2.33,1.94,1.56,2.9,3.86,2.9,6.91,0,2.26-.57,4.1-1.69,5.52-1.13,1.42-2.66,2.41-4.6,2.97l6.78,11.71c.09,.18,.13,.34,.13,.48,0,.24-.1,.44-.29,.62-.19,.18-.4,.26-.64,.26h-2.11c-.5,0-.87-.13-1.1-.4-.24-.26-.44-.53-.62-.79l-6.38-11.18H4.46v11.35c0,.29-.1,.54-.29,.73s-.45,.29-.77,.29H1.16Zm3.3-16.11h7.26c2.2,0,3.84-.46,4.93-1.39,1.09-.92,1.63-2.3,1.63-4.11s-.54-3.16-1.61-4.09c-1.07-.94-2.72-1.41-4.95-1.41H4.46v11Z"/><path class="cls-1" d="M37.25,239.56c-3.02,0-5.43-.93-7.22-2.79s-2.77-4.41-2.95-7.64c-.03-.38-.04-.87-.04-1.48s.01-1.09,.04-1.47c.12-2.08,.6-3.91,1.45-5.48,.85-1.57,2.02-2.78,3.5-3.63,1.48-.85,3.22-1.28,5.22-1.28,2.23,0,4.1,.47,5.61,1.41,1.51,.94,2.66,2.27,3.46,4.01,.79,1.73,1.19,3.76,1.19,6.07v.75c0,.32-.1,.57-.29,.75-.19,.18-.43,.26-.73,.26h-15.23v.4c.06,1.2,.32,2.33,.79,3.37,.47,1.04,1.14,1.88,2.02,2.53,.88,.64,1.94,.97,3.17,.97,1.06,0,1.94-.16,2.64-.48,.7-.32,1.28-.68,1.72-1.08s.73-.7,.88-.9c.26-.38,.47-.61,.62-.68,.15-.07,.38-.11,.7-.11h2.11c.29,0,.53,.08,.73,.24,.19,.16,.27,.39,.24,.68-.03,.44-.26,.98-.7,1.61-.44,.63-1.07,1.26-1.89,1.87-.82,.62-1.82,1.12-2.99,1.52-1.17,.4-2.52,.59-4.05,.59Zm-5.99-13.56h12.06v-.13c0-1.32-.24-2.49-.73-3.52-.48-1.03-1.18-1.84-2.09-2.44-.91-.6-2-.9-3.26-.9s-2.34,.3-3.24,.9c-.9,.6-1.58,1.42-2.05,2.44-.47,1.03-.7,2.2-.7,3.52v.13Z"/><path class="cls-1" d="M59.97,239.12c-.44,0-.79-.1-1.03-.31-.25-.2-.45-.47-.59-.79l-8.14-20.42c-.06-.15-.09-.29-.09-.44,0-.26,.09-.48,.26-.66,.18-.18,.4-.26,.66-.26h2.11c.32,0,.57,.09,.75,.26,.18,.18,.28,.34,.31,.48l6.73,17.34,6.69-17.34c.06-.15,.17-.31,.33-.48,.16-.18,.4-.26,.73-.26h2.16c.23,0,.45,.09,.64,.26,.19,.18,.29,.4,.29,.66,0,.15-.03,.29-.09,.44l-8.19,20.42c-.12,.32-.3,.59-.55,.79-.25,.21-.61,.31-1.08,.31h-1.89Z"/><path class="cls-1" d="M84.92,239.56c-2.23,0-4.09-.42-5.59-1.28-1.5-.85-2.64-2.03-3.43-3.54-.79-1.51-1.23-3.24-1.32-5.17-.03-.5-.04-1.14-.04-1.92s.01-1.4,.04-1.87c.09-1.97,.54-3.7,1.34-5.19,.81-1.5,1.96-2.67,3.46-3.52,1.5-.85,3.35-1.28,5.55-1.28s4.05,.43,5.55,1.28c1.5,.85,2.65,2.02,3.46,3.52,.81,1.5,1.25,3.23,1.34,5.19,.03,.47,.04,1.09,.04,1.87s-.02,1.42-.04,1.92c-.09,1.94-.53,3.66-1.32,5.17-.79,1.51-1.94,2.69-3.43,3.54s-3.36,1.28-5.59,1.28Zm0-3.39c1.82,0,3.27-.58,4.36-1.74s1.67-2.85,1.76-5.08c.03-.44,.04-1,.04-1.67s-.01-1.23-.04-1.67c-.09-2.23-.67-3.92-1.76-5.08-1.09-1.16-2.54-1.74-4.36-1.74s-3.28,.58-4.38,1.74c-1.1,1.16-1.68,2.85-1.74,5.08-.03,.44-.04,1-.04,1.67s.01,1.23,.04,1.67c.06,2.23,.64,3.93,1.74,5.08s2.56,1.74,4.38,1.74Z"/><path class="cls-1" d="M101.87,239.12c-.29,0-.54-.09-.73-.29-.19-.19-.29-.43-.29-.73v-29.23c0-.29,.09-.53,.29-.73,.19-.19,.43-.29,.73-.29h2.07c.32,0,.57,.1,.75,.29,.18,.19,.26,.43,.26,.73v29.23c0,.29-.09,.54-.26,.73-.18,.19-.43,.29-.75,.29h-2.07Z"/><path class="cls-1" d="M120.05,239.56c-1.88,0-3.47-.42-4.78-1.25-1.31-.84-2.3-2-2.97-3.5-.67-1.5-1.01-3.21-1.01-5.15v-12.41c0-.29,.09-.53,.29-.73,.19-.19,.43-.29,.73-.29h2.2c.29,0,.54,.1,.73,.29s.29,.43,.29,.73v12.19c0,4.37,1.91,6.56,5.72,6.56,1.82,0,3.28-.58,4.38-1.74,1.1-1.16,1.65-2.76,1.65-4.82v-12.19c0-.29,.1-.53,.29-.73s.43-.29,.73-.29h2.16c.32,0,.57,.1,.75,.29s.26,.43,.26,.73v20.86c0,.29-.09,.54-.26,.73s-.43,.29-.75,.29h-2.02c-.29,0-.54-.09-.73-.29-.19-.19-.29-.43-.29-.73v-1.94c-.79,1.03-1.75,1.85-2.88,2.47-1.13,.62-2.62,.92-4.47,.92Z"/><path class="cls-1" d="M146.94,239.12c-1.64,0-2.98-.31-4.01-.95-1.03-.63-1.78-1.53-2.24-2.69-.47-1.16-.7-2.53-.7-4.11v-11.62h-3.43c-.29,0-.54-.09-.73-.29s-.29-.43-.29-.73v-1.5c0-.29,.09-.53,.29-.73s.43-.29,.73-.29h3.43v-7.35c0-.29,.09-.53,.29-.73,.19-.19,.43-.29,.73-.29h2.07c.29,0,.53,.1,.73,.29,.19,.19,.29,.43,.29,.73v7.35h5.46c.29,0,.54,.1,.73,.29s.29,.43,.29,.73v1.5c0,.29-.1,.54-.29,.73s-.43,.29-.73,.29h-5.46v11.31c0,1.38,.23,2.47,.7,3.26,.47,.79,1.31,1.19,2.51,1.19h2.68c.29,0,.54,.1,.73,.29,.19,.19,.29,.43,.29,.73v1.58c0,.29-.1,.54-.29,.73s-.43,.29-.73,.29h-3.04Z"/><path class="cls-1" d="M155.88,211.96c-.29,0-.54-.09-.73-.29s-.29-.43-.29-.73v-2.38c0-.29,.1-.53,.29-.73,.19-.19,.43-.29,.73-.29h2.77c.29,0,.54,.1,.73,.29,.19,.19,.29,.43,.29,.73v2.38c0,.29-.1,.54-.29,.73s-.43,.29-.73,.29h-2.77Zm.35,27.16c-.29,0-.54-.09-.73-.29-.19-.19-.29-.43-.29-.73v-20.86c0-.29,.09-.53,.29-.73,.19-.19,.43-.29,.73-.29h2.11c.29,0,.53,.1,.7,.29s.26,.43,.26,.73v20.86c0,.29-.09,.54-.26,.73s-.41,.29-.7,.29h-2.11Z"/><path class="cls-1" d="M175.24,239.56c-2.23,0-4.09-.42-5.59-1.28s-2.64-2.03-3.43-3.54c-.79-1.51-1.23-3.24-1.32-5.17-.03-.5-.04-1.14-.04-1.92s.01-1.4,.04-1.87c.09-1.97,.54-3.7,1.34-5.19,.81-1.5,1.96-2.67,3.46-3.52s3.35-1.28,5.55-1.28,4.05,.43,5.55,1.28c1.5,.85,2.65,2.02,3.46,3.52,.81,1.5,1.25,3.23,1.34,5.19,.03,.47,.04,1.09,.04,1.87s-.02,1.42-.04,1.92c-.09,1.94-.53,3.66-1.32,5.17-.79,1.51-1.94,2.69-3.43,3.54s-3.36,1.28-5.59,1.28Zm0-3.39c1.82,0,3.27-.58,4.36-1.74,1.09-1.16,1.67-2.85,1.76-5.08,.03-.44,.04-1,.04-1.67s-.01-1.23-.04-1.67c-.09-2.23-.67-3.92-1.76-5.08-1.09-1.16-2.54-1.74-4.36-1.74s-3.28,.58-4.38,1.74-1.68,2.85-1.74,5.08c-.03,.44-.04,1-.04,1.67s.01,1.23,.04,1.67c.06,2.23,.64,3.93,1.74,5.08,1.1,1.16,2.56,1.74,4.38,1.74Z"/><path class="cls-1" d="M192.15,239.12c-.29,0-.54-.09-.73-.29-.19-.19-.29-.43-.29-.73v-20.86c0-.29,.09-.53,.29-.73,.19-.19,.43-.29,.73-.29h2.07c.29,0,.53,.1,.73,.29,.19,.19,.29,.43,.29,.73v1.94c.76-1,1.72-1.81,2.88-2.44,1.16-.63,2.65-.95,4.47-.95s3.53,.42,4.86,1.26c1.34,.84,2.34,2,3.02,3.48,.67,1.48,1.01,3.21,1.01,5.17v12.41c0,.29-.09,.54-.26,.73s-.41,.29-.7,.29h-2.2c-.29,0-.54-.09-.73-.29s-.29-.43-.29-.73v-12.19c0-2.05-.5-3.66-1.5-4.82s-2.46-1.74-4.4-1.74c-1.82,0-3.28,.58-4.38,1.74-1.1,1.16-1.65,2.77-1.65,4.82v12.19c0,.29-.1,.54-.29,.73s-.43,.29-.73,.29h-2.2Z"/><path class="cls-1" d="M218.47,211.96c-.29,0-.54-.09-.73-.29s-.29-.43-.29-.73v-2.38c0-.29,.1-.53,.29-.73,.19-.19,.43-.29,.73-.29h2.77c.29,0,.54,.1,.73,.29,.19,.19,.29,.43,.29,.73v2.38c0,.29-.1,.54-.29,.73s-.43,.29-.73,.29h-2.77Zm.35,27.16c-.29,0-.54-.09-.73-.29-.19-.19-.29-.43-.29-.73v-20.86c0-.29,.09-.53,.29-.73,.19-.19,.43-.29,.73-.29h2.11c.29,0,.53,.1,.7,.29s.26,.43,.26,.73v20.86c0,.29-.09,.54-.26,.73s-.41,.29-.7,.29h-2.11Z"/><path class="cls-1" d="M236.38,239.56c-1.64,0-3.05-.2-4.23-.62-1.17-.41-2.13-.91-2.86-1.5-.73-.59-1.28-1.17-1.65-1.76-.37-.59-.57-1.06-.59-1.41-.03-.32,.07-.57,.31-.75,.23-.18,.47-.26,.7-.26h1.94c.18,0,.31,.02,.42,.07,.1,.04,.24,.17,.42,.37,.38,.41,.81,.82,1.28,1.23s1.05,.75,1.74,1.01c.69,.26,1.55,.4,2.57,.4,1.5,0,2.73-.29,3.7-.86,.97-.57,1.45-1.42,1.45-2.53,0-.73-.2-1.32-.59-1.76s-1.1-.84-2.11-1.19c-1.01-.35-2.4-.72-4.16-1.1-1.76-.41-3.15-.92-4.18-1.52-1.03-.6-1.76-1.32-2.2-2.16-.44-.84-.66-1.78-.66-2.84s.32-2.13,.97-3.15c.64-1.01,1.59-1.84,2.84-2.49,1.25-.64,2.81-.97,4.69-.97,1.53,0,2.83,.19,3.92,.57,1.08,.38,1.98,.86,2.68,1.43,.7,.57,1.23,1.14,1.58,1.7,.35,.56,.54,1.03,.57,1.41,.03,.29-.06,.53-.26,.73s-.44,.29-.7,.29h-1.85c-.21,0-.37-.04-.51-.13s-.26-.19-.37-.31c-.29-.38-.64-.76-1.03-1.15-.4-.38-.91-.7-1.54-.95-.63-.25-1.46-.37-2.49-.37-1.47,0-2.57,.31-3.3,.93-.73,.62-1.1,1.39-1.1,2.33,0,.56,.16,1.06,.48,1.5,.32,.44,.94,.84,1.85,1.19,.91,.35,2.26,.73,4.05,1.15,1.94,.38,3.46,.89,4.58,1.54,1.11,.64,1.91,1.39,2.38,2.24,.47,.85,.7,1.83,.7,2.95,0,1.23-.36,2.36-1.08,3.39-.72,1.03-1.78,1.84-3.17,2.44-1.39,.6-3.12,.9-5.17,.9Z"/><path class="cls-1" d="M251.57,211.96c-.29,0-.54-.09-.73-.29s-.29-.43-.29-.73v-2.38c0-.29,.1-.53,.29-.73,.19-.19,.43-.29,.73-.29h2.77c.29,0,.54,.1,.73,.29,.19,.19,.29,.43,.29,.73v2.38c0,.29-.1,.54-.29,.73s-.43,.29-.73,.29h-2.77Zm.35,27.16c-.29,0-.54-.09-.73-.29-.19-.19-.29-.43-.29-.73v-20.86c0-.29,.09-.53,.29-.73,.19-.19,.43-.29,.73-.29h2.11c.29,0,.53,.1,.7,.29s.26,.43,.26,.73v20.86c0,.29-.09,.54-.26,.73s-.41,.29-.7,.29h-2.11Z"/><path class="cls-1" d="M262.57,239.12c-.29,0-.54-.09-.73-.29-.19-.19-.29-.43-.29-.73v-20.86c0-.29,.09-.53,.29-.73,.19-.19,.43-.29,.73-.29h2.07c.29,0,.53,.1,.73,.29,.19,.19,.29,.43,.29,.73v1.94c.76-1,1.72-1.81,2.88-2.44,1.16-.63,2.65-.95,4.47-.95s3.53,.42,4.86,1.26c1.34,.84,2.34,2,3.02,3.48,.67,1.48,1.01,3.21,1.01,5.17v12.41c0,.29-.09,.54-.26,.73s-.41,.29-.7,.29h-2.2c-.29,0-.54-.09-.73-.29s-.29-.43-.29-.73v-12.19c0-2.05-.5-3.66-1.5-4.82s-2.46-1.74-4.4-1.74c-1.82,0-3.28,.58-4.38,1.74s-1.65,2.77-1.65,4.82v12.19c0,.29-.1,.54-.29,.73s-.43,.29-.73,.29h-2.2Z"/><path class="cls-1" d="M297.61,248.8c-2,0-3.63-.26-4.91-.79-1.28-.53-2.27-1.17-2.99-1.91-.72-.75-1.23-1.5-1.54-2.25-.31-.75-.48-1.34-.51-1.78-.03-.29,.07-.54,.29-.75s.46-.31,.73-.31h2.11c.26,0,.48,.06,.66,.18,.18,.12,.32,.37,.44,.75,.18,.44,.44,.93,.79,1.47s.89,1.01,1.63,1.41c.73,.4,1.76,.59,3.08,.59s2.54-.18,3.48-.55c.94-.37,1.65-1.01,2.13-1.94,.48-.93,.73-2.19,.73-3.81v-2.99c-.7,.91-1.63,1.67-2.77,2.27-1.15,.6-2.58,.9-4.31,.9s-3.05-.29-4.23-.86c-1.17-.57-2.13-1.35-2.88-2.33-.75-.98-1.31-2.11-1.67-3.37-.37-1.26-.58-2.58-.64-3.96-.03-.82-.03-1.63,0-2.42,.06-1.38,.27-2.7,.64-3.96,.37-1.26,.92-2.39,1.67-3.39,.75-1,1.71-1.78,2.88-2.36,1.17-.57,2.58-.86,4.23-.86,1.76,0,3.22,.33,4.38,.99,1.16,.66,2.11,1.46,2.84,2.4v-1.89c0-.29,.09-.54,.29-.75,.19-.2,.43-.31,.73-.31h2.03c.29,0,.54,.1,.75,.31,.2,.21,.31,.46,.31,.75v21.35c0,1.97-.33,3.71-.99,5.24-.66,1.53-1.75,2.73-3.26,3.61-1.51,.88-3.54,1.32-6.1,1.32Zm-.09-13.03c1.47,0,2.65-.34,3.54-1.01,.89-.68,1.55-1.53,1.98-2.55,.42-1.03,.65-2.07,.68-3.13,.03-.41,.04-.92,.04-1.52s-.01-1.11-.04-1.52c-.03-1.06-.26-2.1-.68-3.13-.43-1.03-1.09-1.88-1.98-2.55-.9-.68-2.08-1.01-3.54-1.01s-2.64,.33-3.52,.99c-.88,.66-1.51,1.53-1.89,2.6-.38,1.07-.6,2.22-.66,3.46-.03,.76-.03,1.54,0,2.33,.06,1.23,.28,2.38,.66,3.45,.38,1.07,1.01,1.94,1.89,2.6,.88,.66,2.05,.99,3.52,.99Z"/><path class="cls-1" d="M334.23,239.12c-1.64,0-2.98-.31-4.01-.95-1.03-.63-1.78-1.53-2.24-2.69-.47-1.16-.7-2.53-.7-4.11v-11.62h-3.43c-.29,0-.54-.09-.73-.29s-.29-.43-.29-.73v-1.5c0-.29,.09-.53,.29-.73s.43-.29,.73-.29h3.43v-7.35c0-.29,.09-.53,.29-.73,.19-.19,.43-.29,.73-.29h2.07c.29,0,.53,.1,.73,.29,.19,.19,.29,.43,.29,.73v7.35h5.46c.29,0,.54,.1,.73,.29s.29,.43,.29,.73v1.5c0,.29-.1,.54-.29,.73s-.43,.29-.73,.29h-5.46v11.31c0,1.38,.23,2.47,.7,3.26,.47,.79,1.31,1.19,2.51,1.19h2.68c.29,0,.54,.1,.73,.29,.19,.19,.29,.43,.29,.73v1.58c0,.29-.1,.54-.29,.73s-.43,.29-.73,.29h-3.04Z"/><path class="cls-1" d="M343.56,239.12c-.29,0-.54-.09-.73-.29-.19-.19-.29-.43-.29-.73v-29.23c0-.29,.09-.53,.29-.73,.19-.19,.43-.29,.73-.29h2.2c.32,0,.57,.1,.75,.29s.26,.43,.26,.73v10.26c.79-1,1.76-1.81,2.9-2.42,1.15-.62,2.6-.93,4.36-.93,1.91,0,3.53,.42,4.86,1.26,1.34,.84,2.35,2,3.04,3.48,.69,1.48,1.03,3.21,1.03,5.17v12.41c0,.29-.09,.54-.26,.73-.18,.19-.43,.29-.75,.29h-2.2c-.29,0-.54-.09-.73-.29s-.29-.43-.29-.73v-12.19c0-2.05-.5-3.66-1.5-4.82-1-1.16-2.46-1.74-4.4-1.74-1.82,0-3.29,.58-4.4,1.74-1.12,1.16-1.67,2.77-1.67,4.82v12.19c0,.29-.09,.54-.26,.73s-.43,.29-.75,.29h-2.2Z"/><path class="cls-1" d="M378.42,239.56c-3.02,0-5.43-.93-7.22-2.79-1.79-1.86-2.77-4.41-2.95-7.64-.03-.38-.04-.87-.04-1.48s.01-1.09,.04-1.47c.12-2.08,.6-3.91,1.45-5.48,.85-1.57,2.02-2.78,3.5-3.63,1.48-.85,3.22-1.28,5.22-1.28,2.23,0,4.1,.47,5.61,1.41,1.51,.94,2.66,2.27,3.46,4.01,.79,1.73,1.19,3.76,1.19,6.07v.75c0,.32-.1,.57-.29,.75-.19,.18-.43,.26-.73,.26h-15.23v.4c.06,1.2,.32,2.33,.79,3.37,.47,1.04,1.14,1.88,2.02,2.53,.88,.64,1.94,.97,3.17,.97,1.06,0,1.94-.16,2.64-.48,.7-.32,1.28-.68,1.72-1.08s.73-.7,.88-.9c.26-.38,.47-.61,.62-.68,.15-.07,.38-.11,.7-.11h2.11c.29,0,.53,.08,.73,.24,.19,.16,.27,.39,.24,.68-.03,.44-.26,.98-.7,1.61-.44,.63-1.07,1.26-1.89,1.87-.82,.62-1.82,1.12-2.99,1.52-1.17,.4-2.52,.59-4.05,.59Zm-5.99-13.56h12.06v-.13c0-1.32-.24-2.49-.73-3.52-.48-1.03-1.18-1.84-2.09-2.44-.91-.6-2-.9-3.26-.9s-2.34,.3-3.24,.9c-.9,.6-1.58,1.42-2.05,2.44-.47,1.03-.7,2.2-.7,3.52v.13Z"/><path class="cls-1" d="M408.05,239.12c-.29,0-.54-.09-.73-.29s-.29-.43-.29-.73v-18.35h-3.74c-.29,0-.54-.09-.73-.29s-.29-.43-.29-.73v-1.5c0-.29,.09-.53,.29-.73s.43-.29,.73-.29h3.74v-2.2c0-1.5,.25-2.81,.75-3.94,.5-1.13,1.3-2,2.4-2.62,1.1-.62,2.57-.93,4.42-.93h2.64c.29,0,.53,.1,.7,.29s.26,.43,.26,.73v1.5c0,.29-.09,.54-.26,.73s-.41,.29-.7,.29h-2.55c-1.38,0-2.32,.36-2.82,1.08-.5,.72-.75,1.75-.75,3.1v1.98h5.68c.29,0,.53,.1,.7,.29s.26,.43,.26,.73v1.5c0,.29-.09,.54-.26,.73s-.41,.29-.7,.29h-5.68v18.35c0,.29-.1,.54-.29,.73s-.43,.29-.73,.29h-2.07Z"/><path class="cls-1" d="M430.23,239.56c-1.88,0-3.47-.42-4.78-1.25-1.31-.84-2.3-2-2.97-3.5-.67-1.5-1.01-3.21-1.01-5.15v-12.41c0-.29,.09-.53,.29-.73,.19-.19,.43-.29,.73-.29h2.2c.29,0,.54,.1,.73,.29s.29,.43,.29,.73v12.19c0,4.37,1.91,6.56,5.72,6.56,1.82,0,3.28-.58,4.38-1.74,1.1-1.16,1.65-2.76,1.65-4.82v-12.19c0-.29,.1-.53,.29-.73s.43-.29,.73-.29h2.16c.32,0,.57,.1,.75,.29s.26,.43,.26,.73v20.86c0,.29-.09,.54-.26,.73s-.43,.29-.75,.29h-2.02c-.29,0-.54-.09-.73-.29-.19-.19-.29-.43-.29-.73v-1.94c-.79,1.03-1.75,1.85-2.88,2.47-1.13,.62-2.62,.92-4.47,.92Z"/><path class="cls-1" d="M457.12,239.12c-1.64,0-2.98-.31-4.01-.95-1.03-.63-1.78-1.53-2.24-2.69-.47-1.16-.7-2.53-.7-4.11v-11.62h-3.43c-.29,0-.54-.09-.73-.29s-.29-.43-.29-.73v-1.5c0-.29,.09-.53,.29-.73s.43-.29,.73-.29h3.43v-7.35c0-.29,.09-.53,.29-.73,.19-.19,.43-.29,.73-.29h2.07c.29,0,.53,.1,.73,.29,.19,.19,.29,.43,.29,.73v7.35h5.46c.29,0,.54,.1,.73,.29s.29,.43,.29,.73v1.5c0,.29-.1,.54-.29,.73s-.43,.29-.73,.29h-5.46v11.31c0,1.38,.23,2.47,.7,3.26,.47,.79,1.31,1.19,2.51,1.19h2.68c.29,0,.54,.1,.73,.29,.19,.19,.29,.43,.29,.73v1.58c0,.29-.1,.54-.29,.73s-.43,.29-.73,.29h-3.04Z"/><path class="cls-1" d="M473.94,239.56c-1.88,0-3.47-.42-4.78-1.25-1.31-.84-2.3-2-2.97-3.5-.67-1.5-1.01-3.21-1.01-5.15v-12.41c0-.29,.09-.53,.29-.73,.19-.19,.43-.29,.73-.29h2.2c.29,0,.54,.1,.73,.29s.29,.43,.29,.73v12.19c0,4.37,1.91,6.56,5.72,6.56,1.82,0,3.28-.58,4.38-1.74,1.1-1.16,1.65-2.76,1.65-4.82v-12.19c0-.29,.1-.53,.29-.73s.43-.29,.73-.29h2.16c.32,0,.57,.1,.75,.29s.26,.43,.26,.73v20.86c0,.29-.09,.54-.26,.73s-.43,.29-.75,.29h-2.02c-.29,0-.54-.09-.73-.29-.19-.19-.29-.43-.29-.73v-1.94c-.79,1.03-1.75,1.85-2.88,2.47-1.13,.62-2.62,.92-4.47,.92Z"/><path class="cls-1" d="M492.91,239.12c-.29,0-.54-.09-.73-.29-.19-.19-.29-.43-.29-.73v-20.82c0-.29,.09-.54,.29-.75,.19-.2,.43-.31,.73-.31h2.03c.29,0,.54,.1,.75,.31,.2,.21,.31,.46,.31,.75v1.94c.59-1,1.39-1.75,2.42-2.25,1.03-.5,2.26-.75,3.7-.75h1.76c.29,0,.53,.1,.7,.29,.18,.19,.26,.43,.26,.73v1.81c0,.29-.09,.53-.26,.7-.18,.18-.41,.26-.7,.26h-2.64c-1.58,0-2.83,.46-3.74,1.39-.91,.93-1.36,2.18-1.36,3.76v12.94c0,.29-.1,.54-.31,.73-.21,.19-.46,.29-.75,.29h-2.16Z"/><path class="cls-1" d="M517.3,239.56c-3.02,0-5.43-.93-7.22-2.79-1.79-1.86-2.77-4.41-2.95-7.64-.03-.38-.04-.87-.04-1.48s.01-1.09,.04-1.47c.12-2.08,.6-3.91,1.45-5.48,.85-1.57,2.02-2.78,3.5-3.63,1.48-.85,3.22-1.28,5.22-1.28,2.23,0,4.1,.47,5.61,1.41,1.51,.94,2.66,2.27,3.46,4.01,.79,1.73,1.19,3.76,1.19,6.07v.75c0,.32-.1,.57-.29,.75-.19,.18-.43,.26-.73,.26h-15.23v.4c.06,1.2,.32,2.33,.79,3.37,.47,1.04,1.14,1.88,2.02,2.53,.88,.64,1.94,.97,3.17,.97,1.06,0,1.94-.16,2.64-.48,.7-.32,1.28-.68,1.72-1.08s.73-.7,.88-.9c.26-.38,.47-.61,.62-.68,.15-.07,.38-.11,.7-.11h2.11c.29,0,.53,.08,.73,.24,.19,.16,.27,.39,.24,.68-.03,.44-.26,.98-.7,1.61-.44,.63-1.07,1.26-1.89,1.87-.82,.62-1.82,1.12-2.99,1.52-1.17,.4-2.52,.59-4.05,.59Zm-5.99-13.56h12.06v-.13c0-1.32-.24-2.49-.73-3.52-.48-1.03-1.18-1.84-2.09-2.44s-2-.9-3.26-.9-2.34,.3-3.24,.9c-.9,.6-1.58,1.42-2.05,2.44-.47,1.03-.7,2.2-.7,3.52v.13Z"/></g></g></g></svg>