<?xml version="1.0" encoding="UTF-8"?>
<svg id="Place_Marker" data-name="Place Marker" xmlns="http://www.w3.org/2000/svg" xmlns:xlink="http://www.w3.org/1999/xlink" viewBox="0 0 94.66 90.82">
  <defs>
    <style>
      .cls-1 {
        fill: url(#linear-gradient);
      }

      .cls-2 {
        fill: #0078bb;
      }

      .cls-3 {
        fill: url(#linear-gradient-3);
      }

      .cls-4 {
        fill: url(#linear-gradient-2);
      }
    </style>
    <linearGradient id="linear-gradient" x1="474.28" y1="380.56" x2="466.6" y2="357.87" gradientTransform="translate(-1437.72 1202.02) scale(3.12 -3.12)" gradientUnits="userSpaceOnUse">
      <stop offset="0" stop-color="#104a80"/>
      <stop offset="1" stop-color="#0569a3"/>
    </linearGradient>
    <linearGradient id="linear-gradient-2" x1="476.68" y1="369.98" x2="474.9" y2="369.38" gradientTransform="translate(-1437.72 1202.02) scale(3.12 -3.12)" gradientUnits="userSpaceOnUse">
      <stop offset="0" stop-color="#000" stop-opacity=".3"/>
      <stop offset=".1" stop-color="#000" stop-opacity=".2"/>
      <stop offset=".3" stop-color="#000" stop-opacity=".1"/>
      <stop offset=".6" stop-color="#000" stop-opacity=".1"/>
      <stop offset="1" stop-color="#000" stop-opacity="0"/>
    </linearGradient>
    <linearGradient id="linear-gradient-3" x1="475.75" y1="381.24" x2="484.18" y2="358.78" gradientTransform="translate(-1437.72 1202.02) scale(3.12 -3.12)" gradientUnits="userSpaceOnUse">
      <stop offset="0" stop-color="#3cb2db"/>
      <stop offset="1" stop-color="#2880c6"/>
    </linearGradient>
  </defs>
  <path class="cls-1" d="m34.34,8.66h23.07l-23.95,71c-.12.36-.3.7-.53,1.01-.23.31-.5.58-.81.8-.31.22-.65.4-1.02.51s-.74.18-1.13.18H12.02c-.58,0-1.16-.14-1.68-.41-.52-.27-.97-.65-1.31-1.13-.34-.47-.56-1.02-.65-1.6-.09-.58-.03-1.17.15-1.72L30.85,11.16c.12-.36.3-.7.53-1.01.23-.31.5-.58.81-.8.31-.22.65-.4,1.02-.51.36-.12.74-.18,1.13-.18h0s0,0,0,0Z"/>
  <path class="cls-2" d="m76.87,82.17h-20.72c-.23,0-.46-.02-.69-.07-.23-.04-.45-.11-.67-.19s-.42-.19-.62-.31c-.2-.12-.38-.27-.55-.42l-23.51-21.96c-.25-.23-.42-.53-.5-.87-.15-.68.12-1.38.7-1.77.28-.19.61-.29.95-.29h36.58l9,25.88h0Z"/>
  <path class="cls-4" d="m57.49,8.66l-16.15,47.63h26.39s9.05,25.88,9.05,25.88h-20.64c-.21,0-.43-.02-.64-.06s-.42-.09-.62-.17c-.4-.15-.78-.36-1.11-.63l-15.87-14.81-4.44,13.1c-.12.33-.27.64-.47.92-.39.57-.93,1.03-1.56,1.33-.31.15-.65.25-.99.31H12.03c-.59,0-1.17-.14-1.69-.41-1.06-.55-1.79-1.58-1.95-2.77-.08-.58-.02-1.18.18-1.73L30.85,11.21c.12-.37.29-.72.52-1.03.23-.31.5-.59.81-.82s.66-.41,1.03-.52c.37-.12.75-.18,1.14-.18h23.15,0Z"/>
  <path class="cls-3" d="m86.12,77.31c.19.55.24,1.14.15,1.72-.09.58-.31,1.12-.65,1.6-.69.96-1.8,1.53-2.98,1.53h-25.71c.58,0,1.16-.14,1.68-.41.52-.27.97-.65,1.31-1.13.34-.47.56-1.02.65-1.6.09-.58.03-1.17-.15-1.72L38.1,11.15c-.25-.73-.71-1.36-1.34-1.81-.31-.22-.65-.4-1.02-.51-.36-.12-.74-.18-1.12-.18h25.71c.38,0,.76.06,1.13.18.36.12.71.29,1.02.51.31.22.58.49.81.8.23.31.4.65.53,1.01l22.31,66.16h0Z"/>
</svg>