<?xml version="1.0" encoding="UTF-8"?>
<svg xmlns="http://www.w3.org/2000/svg" xmlns:xlink="http://www.w3.org/1999/xlink" viewBox="0 0 94.66 90.82">
  <defs>
    <style>
      .cls-1 {
        fill: none;
      }

      .cls-2 {
        mask: url(#mask-14);
      }

      .cls-3 {
        mask: url(#mask-13);
      }

      .cls-4 {
        mask: url(#mask-12);
      }

      .cls-5 {
        mask: url(#mask-11);
      }

      .cls-6 {
        mask: url(#mask-10);
      }

      .cls-7 {
        filter: url(#luminosity-noclip-9);
      }

      .cls-8 {
        filter: url(#luminosity-noclip-7);
      }

      .cls-9 {
        filter: url(#luminosity-noclip-3);
      }

      .cls-10 {
        filter: url(#luminosity-noclip-5);
      }

      .cls-11 {
        fill: url(#_ÂÁ_Ï_ÌÌ_È_ËÂÌÚ_98);
      }

      .cls-12 {
        fill: url(#_ÂÁ_Ï_ÌÌ_È_ËÂÌÚ_64);
      }

      .cls-13 {
        fill: url(#_ÂÁ_Ï_ÌÌ_È_ËÂÌÚ_88);
      }

      .cls-14 {
        clip-path: url(#clippath);
      }

      .cls-15 {
        mask: url(#mask);
      }

      .cls-16 {
        filter: url(#luminosity-noclip);
      }

      .cls-17 {
        fill: #00afba;
      }

      .cls-18 {
        fill: #fff;
      }

      .cls-19 {
        fill: #009ca3;
      }

      .cls-20 {
        fill: url(#_ÂÁ_Ï_ÌÌ_È_ËÂÌÚ_88-2);
      }

      .cls-21 {
        fill: url(#_ÂÁ_Ï_ÌÌ_È_ËÂÌÚ_70-4);
      }

      .cls-22 {
        filter: url(#luminosity-noclip-11);
      }

      .cls-23, .cls-24, .cls-25, .cls-26, .cls-27, .cls-28, .cls-29 {
        mix-blend-mode: multiply;
      }

      .cls-30 {
        clip-path: url(#clippath-1);
      }

      .cls-31 {
        clip-path: url(#clippath-2);
      }

      .cls-24 {
        fill: url(#_ÂÁ_Ï_ÌÌ_È_ËÂÌÚ_70);
      }

      .cls-25 {
        fill: url(#_ÂÁ_Ï_ÌÌ_È_ËÂÌÚ_10);
      }

      .cls-26 {
        fill: url(#_ÂÁ_Ï_ÌÌ_È_ËÂÌÚ_70-3);
      }

      .cls-27 {
        fill: url(#_ÂÁ_Ï_ÌÌ_È_ËÂÌÚ_70-2);
      }

      .cls-28 {
        fill: url(#_ÂÁ_Ï_ÌÌ_È_ËÂÌÚ_10-3);
      }

      .cls-29 {
        fill: url(#_ÂÁ_Ï_ÌÌ_È_ËÂÌÚ_10-2);
      }

      .cls-32 {
        isolation: isolate;
      }

      .cls-33 {
        mask: url(#mask-3);
      }

      .cls-34 {
        mask: url(#mask-2);
      }

      .cls-35 {
        mask: url(#mask-5);
      }

      .cls-36 {
        mask: url(#mask-4);
      }

      .cls-37 {
        mask: url(#mask-1);
      }

      .cls-38 {
        mask: url(#mask-7);
      }

      .cls-39 {
        mask: url(#mask-6);
      }

      .cls-40 {
        mask: url(#mask-8);
      }

      .cls-41 {
        mask: url(#mask-9);
      }
    </style>
    <linearGradient id="_ÂÁ_Ï_ÌÌ_È_ËÂÌÚ_64" data-name="¡ÂÁ˚ÏˇÌÌ˚È „‡‰ËÂÌÚ 64" x1="28.46" y1="12.32" x2="62.94" y2="46.8" gradientUnits="userSpaceOnUse">
      <stop offset="0" stop-color="#006c71"/>
      <stop offset="1" stop-color="#376e72"/>
    </linearGradient>
    <clipPath id="clippath">
      <circle class="cls-12" cx="45.7" cy="29.56" r="24.38"/>
    </clipPath>
    <filter id="luminosity-noclip" x="29.48" y="10.92" width="78.77" height="78.77" color-interpolation-filters="sRGB" filterUnits="userSpaceOnUse">
      <feFlood flood-color="#fff" result="bg"/>
      <feBlend in="SourceGraphic" in2="bg"/>
    </filter>
    <filter id="luminosity-noclip-2" x="29.48" y="-7989.8" width="78.77" height="32766" color-interpolation-filters="sRGB" filterUnits="userSpaceOnUse">
      <feFlood flood-color="#fff" result="bg"/>
      <feBlend in="SourceGraphic" in2="bg"/>
    </filter>
    <mask id="mask-2" x="29.48" y="-7989.8" width="78.77" height="32766" maskUnits="userSpaceOnUse"/>
    <radialGradient id="_ÂÁ_Ï_ÌÌ_È_ËÂÌÚ_10" data-name="¡ÂÁ˚ÏˇÌÌ˚È „‡‰ËÂÌÚ 10" cx="-60.39" cy="34.26" fx="-60.39" fy="34.26" r="42.42" gradientTransform="translate(132.85 42.37) rotate(22.5) scale(.93)" gradientUnits="userSpaceOnUse">
      <stop offset="0" stop-color="#fff"/>
      <stop offset="1" stop-color="#000"/>
    </radialGradient>
    <mask id="mask-1" x="29.48" y="10.92" width="78.77" height="78.77" maskUnits="userSpaceOnUse">
      <g class="cls-16">
        <g class="cls-34">
          <circle class="cls-25" cx="68.87" cy="50.3" r="39.39" transform="translate(-14.01 30.18) rotate(-22.5)"/>
        </g>
      </g>
    </mask>
    <filter id="luminosity-noclip-3" x="29.48" y="10.92" width="78.77" height="78.77" color-interpolation-filters="sRGB" filterUnits="userSpaceOnUse">
      <feFlood flood-color="#fff" result="bg"/>
      <feBlend in="SourceGraphic" in2="bg"/>
    </filter>
    <filter id="luminosity-noclip-4" x="29.48" y="-7989.8" width="78.77" height="32766" color-interpolation-filters="sRGB" filterUnits="userSpaceOnUse">
      <feFlood flood-color="#fff" result="bg"/>
      <feBlend in="SourceGraphic" in2="bg"/>
    </filter>
    <mask id="mask-4" x="29.48" y="-7989.8" width="78.77" height="32766" maskUnits="userSpaceOnUse"/>
    <radialGradient id="_ÂÁ_Ï_ÌÌ_È_ËÂÌÚ_70" data-name="¡ÂÁ˚ÏˇÌÌ˚È „‡‰ËÂÌÚ 70" cx="-60.39" cy="34.26" fx="-60.39" fy="34.26" r="42.42" gradientTransform="translate(132.85 42.37) rotate(22.5) scale(.93)" gradientUnits="userSpaceOnUse">
      <stop offset=".2" stop-color="#fff"/>
      <stop offset=".3" stop-color="#fafafa"/>
      <stop offset=".4" stop-color="#eee"/>
      <stop offset=".5" stop-color="#d9d9d9"/>
      <stop offset=".6" stop-color="#bcbcbc"/>
      <stop offset=".7" stop-color="#969696"/>
      <stop offset=".81" stop-color="#696969"/>
      <stop offset=".91" stop-color="#333"/>
      <stop offset="1" stop-color="#000"/>
    </radialGradient>
    <mask id="mask-3" x="29.48" y="10.92" width="78.77" height="78.77" maskUnits="userSpaceOnUse">
      <g class="cls-9">
        <g class="cls-36">
          <circle class="cls-24" cx="68.87" cy="50.3" r="39.39" transform="translate(-14.01 30.18) rotate(-22.5)"/>
        </g>
      </g>
    </mask>
    <radialGradient id="_ÂÁ_Ï_ÌÌ_È_ËÂÌÚ_88" data-name="¡ÂÁ˚ÏˇÌÌ˚È „‡‰ËÂÌÚ 88" cx="-60.39" cy="34.26" fx="-60.39" fy="34.26" r="42.42" gradientTransform="translate(132.85 42.37) rotate(22.5) scale(.93)" gradientUnits="userSpaceOnUse">
      <stop offset=".2" stop-color="#fff"/>
      <stop offset=".3" stop-color="#fafafa"/>
      <stop offset=".4" stop-color="#eee"/>
      <stop offset=".5" stop-color="#d9d9d9"/>
      <stop offset=".6" stop-color="#bcbcbc"/>
      <stop offset=".7" stop-color="#969696"/>
      <stop offset=".81" stop-color="#696969"/>
      <stop offset=".91" stop-color="#333"/>
      <stop offset="1" stop-color="#000"/>
    </radialGradient>
    <mask id="mask" x="29.48" y="10.92" width="78.77" height="78.77" maskUnits="userSpaceOnUse">
      <g class="cls-37">
        <g class="cls-33">
          <circle class="cls-13" cx="68.87" cy="50.3" r="39.39" transform="translate(-14.01 30.18) rotate(-22.5)"/>
        </g>
      </g>
    </mask>
    <clipPath id="clippath-1">
      <circle class="cls-19" cx="68.87" cy="50.3" r="20.74"/>
    </clipPath>
    <filter id="luminosity-noclip-5" x="15.37" y="35.82" width="65.52" height="65.52" color-interpolation-filters="sRGB" filterUnits="userSpaceOnUse">
      <feFlood flood-color="#fff" result="bg"/>
      <feBlend in="SourceGraphic" in2="bg"/>
    </filter>
    <filter id="luminosity-noclip-6" x="15.37" y="-7989.8" width="65.52" height="32766" color-interpolation-filters="sRGB" filterUnits="userSpaceOnUse">
      <feFlood flood-color="#fff" result="bg"/>
      <feBlend in="SourceGraphic" in2="bg"/>
    </filter>
    <mask id="mask-7" x="15.37" y="-7989.8" width="65.52" height="32766" maskUnits="userSpaceOnUse"/>
    <radialGradient id="_ÂÁ_Ï_ÌÌ_È_ËÂÌÚ_10-2" data-name="¡ÂÁ˚ÏˇÌÌ˚È „‡‰ËÂÌÚ 10" cx="-82.73" cy="53.94" fx="-82.73" fy="53.94" r="35.28" gradientTransform="translate(123.79 120.38) rotate(67.5) scale(.93)" xlink:href="#_ÂÁ_Ï_ÌÌ_È_ËÂÌÚ_10"/>
    <mask id="mask-6" x="15.37" y="35.82" width="65.52" height="65.52" maskUnits="userSpaceOnUse">
      <g class="cls-10">
        <g class="cls-38">
          <circle class="cls-29" cx="48.13" cy="68.58" r="32.76" transform="translate(-33.65 86.8) rotate(-67.5)"/>
        </g>
      </g>
    </mask>
    <filter id="luminosity-noclip-7" x="15.37" y="35.82" width="65.52" height="65.52" color-interpolation-filters="sRGB" filterUnits="userSpaceOnUse">
      <feFlood flood-color="#fff" result="bg"/>
      <feBlend in="SourceGraphic" in2="bg"/>
    </filter>
    <filter id="luminosity-noclip-8" x="15.37" y="-7989.8" width="65.52" height="32766" color-interpolation-filters="sRGB" filterUnits="userSpaceOnUse">
      <feFlood flood-color="#fff" result="bg"/>
      <feBlend in="SourceGraphic" in2="bg"/>
    </filter>
    <mask id="mask-9" x="15.37" y="-7989.8" width="65.52" height="32766" maskUnits="userSpaceOnUse"/>
    <radialGradient id="_ÂÁ_Ï_ÌÌ_È_ËÂÌÚ_70-2" data-name="¡ÂÁ˚ÏˇÌÌ˚È „‡‰ËÂÌÚ 70" cx="-82.73" cy="53.94" fx="-82.73" fy="53.94" r="35.28" gradientTransform="translate(123.79 120.38) rotate(67.5) scale(.93)" xlink:href="#_ÂÁ_Ï_ÌÌ_È_ËÂÌÚ_70"/>
    <mask id="mask-8" x="15.37" y="35.82" width="65.52" height="65.52" maskUnits="userSpaceOnUse">
      <g class="cls-8">
        <g class="cls-41">
          <circle class="cls-27" cx="48.13" cy="68.58" r="32.76" transform="translate(-33.65 86.8) rotate(-67.5)"/>
        </g>
      </g>
    </mask>
    <radialGradient id="_ÂÁ_Ï_ÌÌ_È_ËÂÌÚ_88-2" data-name="¡ÂÁ˚ÏˇÌÌ˚È „‡‰ËÂÌÚ 88" cx="-82.73" cy="53.94" fx="-82.73" fy="53.94" r="35.28" gradientTransform="translate(123.79 120.38) rotate(67.5) scale(.93)" xlink:href="#_ÂÁ_Ï_ÌÌ_È_ËÂÌÚ_88"/>
    <mask id="mask-5" x="15.37" y="35.82" width="65.52" height="65.52" maskUnits="userSpaceOnUse">
      <g class="cls-39">
        <g class="cls-40">
          <circle class="cls-20" cx="48.13" cy="68.58" r="32.76" transform="translate(-33.65 86.8) rotate(-67.5)"/>
        </g>
      </g>
    </mask>
    <clipPath id="clippath-2">
      <path class="cls-1" d="m70.08,29.68s0-.08,0-.12c0-13.46-10.92-24.38-24.38-24.38s-24.38,10.92-24.38,24.38c0,11.69,8.23,21.44,19.2,23.82-5.59,2.8-9.46,8.52-9.46,15.2,0,9.42,7.64,17.06,17.06,17.06,8.71,0,15.82-6.55,16.85-14.99,1.26.24,2.56.39,3.89.39,11.46,0,20.74-9.29,20.74-20.74s-8.65-19.98-19.54-20.62Z"/>
    </clipPath>
    <filter id="luminosity-noclip-9" x="-5.43" y="13.3" width="73.53" height="73.53" color-interpolation-filters="sRGB" filterUnits="userSpaceOnUse">
      <feFlood flood-color="#fff" result="bg"/>
      <feBlend in="SourceGraphic" in2="bg"/>
    </filter>
    <filter id="luminosity-noclip-10" x="-5.43" y="-7989.8" width="73.53" height="32766" color-interpolation-filters="sRGB" filterUnits="userSpaceOnUse">
      <feFlood flood-color="#fff" result="bg"/>
      <feBlend in="SourceGraphic" in2="bg"/>
    </filter>
    <mask id="mask-12" x="-5.43" y="-7989.8" width="73.53" height="32766" maskUnits="userSpaceOnUse"/>
    <radialGradient id="_ÂÁ_Ï_ÌÌ_È_ËÂÌÚ_10-3" data-name="¡ÂÁ˚ÏˇÌÌ˚È „‡‰ËÂÌÚ 10" cx="-100.82" cy="34" fx="-100.82" fy="34" r="39.59" gradientTransform="translate(83.57 133.92) rotate(76.72) scale(.93)" xlink:href="#_ÂÁ_Ï_ÌÌ_È_ËÂÌÚ_10"/>
    <mask id="mask-11" x="-5.43" y="13.3" width="73.53" height="73.53" maskUnits="userSpaceOnUse">
      <g class="cls-7">
        <g class="cls-4">
          <circle class="cls-28" cx="31.33" cy="50.07" r="36.76" transform="translate(-24.59 69.06) rotate(-76.72)"/>
        </g>
      </g>
    </mask>
    <filter id="luminosity-noclip-11" x="-5.43" y="13.3" width="73.53" height="73.53" color-interpolation-filters="sRGB" filterUnits="userSpaceOnUse">
      <feFlood flood-color="#fff" result="bg"/>
      <feBlend in="SourceGraphic" in2="bg"/>
    </filter>
    <filter id="luminosity-noclip-12" x="-5.43" y="-7989.8" width="73.53" height="32766" color-interpolation-filters="sRGB" filterUnits="userSpaceOnUse">
      <feFlood flood-color="#fff" result="bg"/>
      <feBlend in="SourceGraphic" in2="bg"/>
    </filter>
    <mask id="mask-14" x="-5.43" y="-7989.8" width="73.53" height="32766" maskUnits="userSpaceOnUse"/>
    <radialGradient id="_ÂÁ_Ï_ÌÌ_È_ËÂÌÚ_70-3" data-name="¡ÂÁ˚ÏˇÌÌ˚È „‡‰ËÂÌÚ 70" cx="-100.82" cy="34" fx="-100.82" fy="34" r="39.59" gradientTransform="translate(83.57 133.92) rotate(76.72) scale(.93)" xlink:href="#_ÂÁ_Ï_ÌÌ_È_ËÂÌÚ_70"/>
    <mask id="mask-13" x="-5.43" y="13.3" width="73.53" height="73.53" maskUnits="userSpaceOnUse">
      <g class="cls-22">
        <g class="cls-2">
          <circle class="cls-26" cx="31.33" cy="50.07" r="36.76" transform="translate(-24.59 69.06) rotate(-76.72)"/>
        </g>
      </g>
    </mask>
    <radialGradient id="_ÂÁ_Ï_ÌÌ_È_ËÂÌÚ_70-4" data-name="¡ÂÁ˚ÏˇÌÌ˚È „‡‰ËÂÌÚ 70" cx="-100.82" cy="34" fx="-100.82" fy="34" r="39.59" gradientTransform="translate(83.57 133.92) rotate(76.72) scale(.93)" xlink:href="#_ÂÁ_Ï_ÌÌ_È_ËÂÌÚ_70"/>
    <mask id="mask-10" x="-5.43" y="13.3" width="73.53" height="73.53" maskUnits="userSpaceOnUse">
      <g class="cls-5">
        <g class="cls-3">
          <circle class="cls-21" cx="31.33" cy="50.07" r="36.76" transform="translate(-24.59 69.06) rotate(-76.72)"/>
        </g>
      </g>
    </mask>
    <linearGradient id="_ÂÁ_Ï_ÌÌ_È_ËÂÌÚ_98" data-name="¡ÂÁ˚ÏˇÌÌ˚È „‡‰ËÂÌÚ 98" x1="4.32" y1="26.71" x2="49.68" y2="64.77" gradientUnits="userSpaceOnUse">
      <stop offset="0" stop-color="#008e91"/>
      <stop offset="1" stop-color="#007377"/>
    </linearGradient>
  </defs>
  <g class="cls-32">
    <g id="Place_Marker" data-name="Place Marker">
      <g>
        <g>
          <circle class="cls-12" cx="45.7" cy="29.56" r="24.38"/>
          <g class="cls-14">
            <g class="cls-15">
              <circle cx="68.87" cy="50.3" r="39.39" transform="translate(-14.01 30.18) rotate(-22.5)"/>
            </g>
          </g>
        </g>
        <g>
          <circle class="cls-19" cx="68.87" cy="50.3" r="20.74"/>
          <g class="cls-30">
            <g class="cls-35">
              <circle class="cls-23" cx="48.13" cy="68.58" r="32.76" transform="translate(-33.65 86.8) rotate(-67.5)"/>
            </g>
          </g>
        </g>
        <circle class="cls-17" cx="48.13" cy="68.58" r="17.06"/>
        <g class="cls-31">
          <g class="cls-6">
            <circle class="cls-23" cx="31.33" cy="50.07" r="36.76" transform="translate(-24.59 69.06) rotate(-76.72)"/>
          </g>
        </g>
        <g>
          <rect class="cls-11" x="5.05" y="23.78" width="43.91" height="43.91" rx="3.24" ry="3.24"/>
          <path class="cls-18" d="m21.46,45.37c-.81-.51-1.48-1.21-1.95-2.04-.48-.87-.72-1.86-.69-2.86-.04-1.32.41-2.62,1.26-3.64.91-1.02,2.07-1.79,3.38-2.21,1.48-.5,3.03-.75,4.59-.74,2.06-.07,4.11.22,6.06.87v4.33c-.85-.51-1.77-.89-2.73-1.13-1.05-.26-2.12-.39-3.2-.39-1.14-.05-2.27.19-3.29.69-.79.35-1.3,1.13-1.3,1.99,0,.51.18,1.01.52,1.39.42.47.94.84,1.52,1.08.61.3,1.56.74,2.81,1.21h0c1.22.47,2.78,1.05,3.9,1.73.86.52,1.57,1.25,2.08,2.12.55.96.82,2.06.78,3.16.06,1.37-.37,2.73-1.21,3.81-.81,1.02-1.91,1.76-3.16,2.12-1.4.47-2.86.7-4.33.69-1.38,0-2.75-.12-4.11-.35-1.14-.19-2.26-.51-3.33-.95v-4.42c1.02.74,2.16,1.28,3.38,1.6,1.21.38,2.46.58,3.72.61,1.16.07,2.31-.19,3.33-.74.72-.4,1.16-1.17,1.13-1.99,0-.58-.22-1.13-.61-1.56-.53-.49-1.13-.9-1.78-1.21-.74-.35-1.82-.87-3.29-1.47-1.21-.45-2.38-1.03-3.46-1.73Z"/>
        </g>
      </g>
    </g>
  </g>
</svg>