<?xml version="1.0" encoding="UTF-8"?>
<svg xmlns="http://www.w3.org/2000/svg" xmlns:xlink="http://www.w3.org/1999/xlink" viewBox="0 0 94.66 90.82">
  <defs>
    <style>
      .cls-1 {
        fill: #d774a7;
      }

      .cls-1, .cls-2 {
        opacity: .12;
      }

      .cls-2 {
        fill: #812470;
      }

      .cls-3 {
        fill: #8a2678;
      }

      .cls-3, .cls-4 {
        opacity: .06;
      }

      .cls-4 {
        fill: #dd7aab;
      }

      .cls-5 {
        clip-path: url(#clippath);
      }

      .cls-6 {
        mask: url(#mask);
      }

      .cls-7 {
        filter: url(#luminosity-noclip);
      }

      .cls-8 {
        fill: #ff81b4;
      }

      .cls-9 {
        fill: #80226d;
      }

      .cls-10, .cls-11 {
        fill: #932980;
      }

      .cls-12 {
        fill: #d379a6;
      }

      .cls-13, .cls-14, .cls-15, .cls-16 {
        mix-blend-mode: multiply;
      }

      .cls-17 {
        clip-path: url(#clippath-1);
      }

      .cls-14 {
        fill: url(#_ÂÁ_Ï_ÌÌ_È_ËÂÌÚ_10);
      }

      .cls-18 {
        fill: #772168;
      }

      .cls-18, .cls-19 {
        opacity: .19;
      }

      .cls-19 {
        fill: #d06ea3;
      }

      .cls-20 {
        fill: #e380af;
      }

      .cls-20, .cls-11 {
        opacity: 0;
      }

      .cls-21 {
        isolation: isolate;
      }

      .cls-22 {
        fill: url(#_ÂÁ_Ï_ÌÌ_È_ËÂÌÚ_133);
      }

      .cls-15 {
        opacity: .4;
      }

      .cls-23 {
        mask: url(#mask-2);
      }

      .cls-24 {
        mask: url(#mask-1);
      }

      .cls-16 {
        opacity: .7;
      }

      .cls-25 {
        fill: #2e0d28;
      }

      .cls-25, .cls-26 {
        opacity: .69;
      }

      .cls-26 {
        fill: #9f3f82;
      }

      .cls-27 {
        fill: #370f30;
      }

      .cls-27, .cls-28 {
        opacity: .62;
      }

      .cls-28 {
        fill: #a54586;
      }

      .cls-29 {
        fill: #401238;
      }

      .cls-29, .cls-30 {
        opacity: .56;
      }

      .cls-30 {
        fill: #ab4b8a;
      }

      .cls-31 {
        fill: #4a1540;
      }

      .cls-31, .cls-32 {
        opacity: .5;
      }

      .cls-32 {
        fill: #b2518e;
      }

      .cls-33 {
        fill: #090308;
      }

      .cls-33, .cls-34 {
        opacity: .94;
      }

      .cls-34 {
        fill: #862871;
      }

      .cls-35 {
        fill: #120510;
      }

      .cls-35, .cls-36 {
        opacity: .88;
      }

      .cls-36 {
        fill: #8c2e75;
      }

      .cls-37 {
        fill: #1c0818;
      }

      .cls-37, .cls-38 {
        opacity: .81;
      }

      .cls-38 {
        fill: #933479;
      }

      .cls-39 {
        fill: #250a20;
      }

      .cls-39, .cls-40 {
        opacity: .75;
      }

      .cls-40 {
        fill: #993a7e;
      }

      .cls-41 {
        fill: #651c58;
      }

      .cls-41, .cls-42 {
        opacity: .31;
      }

      .cls-42 {
        fill: #c4639a;
      }

      .cls-43 {
        fill: #6e1f60;
      }

      .cls-43, .cls-44 {
        opacity: .25;
      }

      .cls-44 {
        fill: #ca699e;
      }

      .cls-45 {
        fill: #531748;
      }

      .cls-45, .cls-46 {
        opacity: .44;
      }

      .cls-46 {
        fill: #b85792;
      }

      .cls-47 {
        fill: #5c1a50;
      }

      .cls-47, .cls-48 {
        opacity: .38;
      }

      .cls-48 {
        fill: #be5d96;
      }
    </style>
    <clipPath id="clippath">
      <path class="cls-10" d="m83.91,45.76L44.65,6.5c-1.67-1.67-4.39-1.64-6.02.07L4.71,42.15c-1.55,1.63-1.55,4.18,0,5.81l34.62,36.28c1.63,1.71,4.35,1.74,6.02.07l38.55-38.55Z"/>
    </clipPath>
    <filter id="luminosity-noclip" x="23.6" y="8.89" width="73.03" height="73.03" color-interpolation-filters="sRGB" filterUnits="userSpaceOnUse">
      <feFlood flood-color="#fff" result="bg"/>
      <feBlend in="SourceGraphic" in2="bg"/>
    </filter>
    <filter id="luminosity-noclip-2" x="23.6" y="-7989.47" width="73.03" height="32766" color-interpolation-filters="sRGB" filterUnits="userSpaceOnUse">
      <feFlood flood-color="#fff" result="bg"/>
      <feBlend in="SourceGraphic" in2="bg"/>
    </filter>
    <mask id="mask-2" x="23.6" y="-7989.47" width="73.03" height="32766" maskUnits="userSpaceOnUse"/>
    <radialGradient id="_ÂÁ_Ï_ÌÌ_È_ËÂÌÚ_10" data-name="¡ÂÁ˚ÏˇÌÌ˚È „‡‰ËÂÌÚ 10" cx="-56.22" cy="29.01" fx="-56.22" fy="29.01" r="39.33" gradientTransform="translate(116.07 63.27) rotate(45) scale(.93)" gradientUnits="userSpaceOnUse">
      <stop offset="0" stop-color="#fff"/>
      <stop offset="1" stop-color="#000"/>
    </radialGradient>
    <mask id="mask-1" x="23.6" y="8.89" width="73.03" height="73.03" maskUnits="userSpaceOnUse">
      <g class="cls-7">
        <g class="cls-23">
          <circle class="cls-14" cx="60.12" cy="45.41" r="36.52" transform="translate(-14.5 55.81) rotate(-45)"/>
        </g>
      </g>
    </mask>
    <radialGradient id="_ÂÁ_Ï_ÌÌ_È_ËÂÌÚ_133" data-name="¡ÂÁ˚ÏˇÌÌ˚È „‡‰ËÂÌÚ 133" cx="-56.22" cy="29.01" fx="-56.22" fy="29.01" r="39.33" gradientTransform="translate(116.07 63.27) rotate(45) scale(.93)" gradientUnits="userSpaceOnUse">
      <stop offset="0" stop-color="#fff"/>
      <stop offset="1" stop-color="#000"/>
    </radialGradient>
    <mask id="mask" x="23.6" y="8.89" width="73.03" height="73.03" maskUnits="userSpaceOnUse">
      <g class="cls-24">
        <circle class="cls-22" cx="60.12" cy="45.41" r="36.52" transform="translate(-14.5 55.81) rotate(-45)"/>
      </g>
    </mask>
    <clipPath id="clippath-1">
      <path class="cls-12" d="m35.48,26.26l16.44,16.57c1.42,1.43,1.42,3.73,0,5.16l-16.09,16.22c-1.63,1.65-1.63,4.3.01,5.94l14.17,14.17c1.67,1.67,4.39,1.64,6.02-.07l33.91-35.57c1.55-1.63,1.55-4.18,0-5.81L55.33,6.58c-1.63-1.71-4.35-1.74-6.02-.07l-13.82,13.82c-1.64,1.64-1.64,4.3-.01,5.94Z"/>
    </clipPath>
  </defs>
  <g class="cls-21">
    <g id="Place_Marker" data-name="Place Marker">
      <g>
        <g>
          <path class="cls-10" d="m83.91,45.76L44.65,6.5c-1.67-1.67-4.39-1.64-6.02.07L4.71,42.15c-1.55,1.63-1.55,4.18,0,5.81l34.62,36.28c1.63,1.71,4.35,1.74,6.02.07l38.55-38.55Z"/>
          <g class="cls-5">
            <g class="cls-16">
              <path class="cls-11" d="m28.85,63.71l14.78-14.9c1.87-1.88,1.87-4.92,0-6.8l-15.17-15.29c-2.96-2.98-2.95-7.79.02-10.75L46.04-1.58c3.03-3.03,7.95-2.97,10.9.13l40.06,41.99c2.81,2.94,2.81,7.57,0,10.52l-39.3,41.22c-2.95,3.1-7.88,3.16-10.9.13l-17.93-17.94c-2.97-2.97-2.98-7.77-.02-10.75Z"/>
              <path class="cls-3" d="m29.63,63.72l14.79-14.91c1.87-1.88,1.87-4.91,0-6.79l-15.17-15.3c-2.89-2.91-2.88-7.6.02-10.5L46.22-.74c2.95-2.95,7.76-2.9,10.65.13l39.37,41.27c2.74,2.87,2.74,7.4,0,10.27l-38.61,40.5c-2.88,3.03-7.69,3.08-10.65.13l-17.33-17.33c-2.9-2.9-2.91-7.59-.02-10.5Z"/>
              <path class="cls-2" d="m30.4,63.73l14.8-14.92c1.86-1.88,1.86-4.91,0-6.79l-15.18-15.3c-2.82-2.84-2.81-7.42.02-10.25L46.39.11c2.88-2.88,7.58-2.83,10.39.12l38.68,40.55c2.68,2.81,2.68,7.22,0,10.03l-37.92,39.78c-2.81,2.95-7.51,3.01-10.39.12l-16.73-16.73c-2.83-2.83-2.84-7.41-.02-10.25Z"/>
              <path class="cls-18" d="m31.17,63.73l14.81-14.93c1.86-1.88,1.86-4.91,0-6.78l-15.19-15.31c-2.75-2.77-2.74-7.24.02-10L46.57.96c2.81-2.81,7.39-2.76,10.14.12l37.99,39.82c2.61,2.74,2.61,7.04,0,9.78l-37.24,39.06c-2.75,2.88-7.32,2.93-10.14.12l-16.13-16.13c-2.76-2.76-2.77-7.23-.02-10Z"/>
              <path class="cls-43" d="m31.95,63.74l14.82-14.94c1.86-1.88,1.86-4.9,0-6.78l-15.19-15.31c-2.68-2.7-2.67-7.06.02-9.75L46.75,1.8c2.74-2.74,7.2-2.69,9.88.12l37.3,39.1c2.55,2.67,2.55,6.86,0,9.53l-36.55,38.34c-2.68,2.81-7.14,2.86-9.88.12l-15.53-15.53c-2.69-2.69-2.7-7.05-.02-9.75Z"/>
              <path class="cls-41" d="m32.72,63.74l14.82-14.94c1.86-1.87,1.86-4.9,0-6.77l-15.2-15.32c-2.61-2.63-2.6-6.88.02-9.5l14.56-14.56c2.67-2.67,7.02-2.62,9.63.11l36.61,38.38c2.48,2.6,2.48,6.69,0,9.29l-35.87,37.62c-2.61,2.74-6.96,2.79-9.63.12l-14.93-14.93c-2.62-2.62-2.63-6.87-.02-9.5Z"/>
              <path class="cls-47" d="m33.5,63.75l14.83-14.95c1.86-1.87,1.86-4.9,0-6.77l-15.2-15.33c-2.54-2.56-2.53-6.69.02-9.24l13.96-13.96c2.6-2.6,6.83-2.55,9.37.11l35.93,37.65c2.41,2.53,2.41,6.51,0,9.04l-35.18,36.9c-2.54,2.66-6.77,2.71-9.37.11l-14.33-14.33c-2.55-2.55-2.56-6.68-.02-9.24Z"/>
              <path class="cls-45" d="m34.27,63.75l14.84-14.96c1.86-1.87,1.86-4.89,0-6.76l-15.21-15.33c-2.47-2.49-2.46-6.51.02-8.99l13.36-13.36c2.53-2.53,6.65-2.48,9.12.11l35.24,36.93c2.35,2.46,2.35,6.33,0,8.79l-34.5,36.19c-2.47,2.59-6.59,2.64-9.12.11l-13.73-13.73c-2.48-2.48-2.49-6.5-.02-8.99Z"/>
              <path class="cls-31" d="m35.05,63.76l14.85-14.97c1.86-1.87,1.86-4.89,0-6.76l-15.22-15.34c-2.4-2.42-2.39-6.33.02-8.74l12.76-12.76c2.46-2.46,6.46-2.41,8.86.1l34.55,36.21c2.28,2.39,2.28,6.16,0,8.55l-33.81,35.47c-2.4,2.52-6.4,2.57-8.86.11l-13.13-13.13c-2.41-2.41-2.42-6.32-.02-8.74Z"/>
              <path class="cls-29" d="m35.82,63.76l14.86-14.98c1.85-1.87,1.85-4.88,0-6.75l-15.22-15.34c-2.33-2.35-2.33-6.15.02-8.49l12.16-12.16c2.39-2.39,6.27-2.34,8.61.1l33.86,35.49c2.22,2.32,2.22,5.98,0,8.3l-33.12,34.75c-2.33,2.45-6.22,2.49-8.61.1l-12.53-12.53c-2.34-2.34-2.35-6.14-.02-8.49Z"/>
              <path class="cls-27" d="m36.59,63.77l14.86-14.98c1.85-1.87,1.85-4.88,0-6.75l-15.23-15.35c-2.26-2.28-2.26-5.97.02-8.24l11.56-11.56c2.32-2.32,6.09-2.27,8.35.1l33.17,34.76c2.15,2.25,2.15,5.8,0,8.06l-32.44,34.03c-2.26,2.37-6.03,2.42-8.35.1l-11.92-11.92c-2.27-2.27-2.28-5.96-.02-8.24Z"/>
              <path class="cls-25" d="m37.37,63.77l14.87-14.99c1.85-1.87,1.85-4.88,0-6.74l-15.23-15.36c-2.2-2.21-2.19-5.78.02-7.99l10.96-10.96c2.25-2.25,5.9-2.2,8.1.1l32.48,34.04c2.09,2.19,2.09,5.62,0,7.81l-31.75,33.31c-2.19,2.3-5.85,2.34-8.1.1l-11.32-11.32c-2.2-2.2-2.21-5.77-.02-7.99Z"/>
              <path class="cls-39" d="m38.14,63.78l14.88-15c1.85-1.86,1.85-4.87,0-6.74l-15.24-15.36c-2.13-2.14-2.12-5.6.02-7.74l10.36-10.36c2.18-2.18,5.72-2.13,7.84.09l31.79,33.32c2.02,2.12,2.02,5.45,0,7.56l-31.07,32.59c-2.12,2.23-5.67,2.27-7.84.09l-10.72-10.72c-2.13-2.13-2.14-5.59-.02-7.74Z"/>
              <path class="cls-37" d="m38.92,63.78l14.89-15.01c1.85-1.86,1.85-4.87,0-6.73l-15.25-15.37c-2.06-2.07-2.05-5.42.01-7.48l9.76-9.76c2.11-2.11,5.53-2.06,7.59.09l31.1,32.59c1.95,2.05,1.95,5.27,0,7.32l-30.38,31.87c-2.05,2.16-5.48,2.2-7.59.09l-10.12-10.12c-2.06-2.06-2.07-5.41-.01-7.48Z"/>
              <path class="cls-35" d="m39.69,63.79l14.9-15.02c1.85-1.86,1.85-4.86,0-6.73l-15.25-15.37c-1.99-2-1.98-5.24.01-7.23l9.17-9.17c2.03-2.03,5.34-2,7.33.09l30.41,31.87c1.89,1.98,1.89,5.09,0,7.07l-29.69,31.15c-1.99,2.08-5.3,2.12-7.33.09l-9.52-9.52c-2-2-2-5.23-.01-7.23Z"/>
              <path class="cls-33" d="m40.47,63.79l14.9-15.02c1.85-1.86,1.85-4.86,0-6.72l-15.26-15.38c-1.92-1.93-1.91-5.05.01-6.98l8.57-8.57c1.96-1.96,5.16-1.93,7.08.08l29.72,31.15c1.82,1.91,1.82,4.92,0,6.83l-29.01,30.43c-1.92,2.01-5.11,2.05-7.08.08l-8.92-8.92c-1.93-1.93-1.93-5.05-.01-6.98Z"/>
              <path d="m41.24,63.8l14.91-15.03c1.84-1.86,1.84-4.86,0-6.72l-15.26-15.39c-1.85-1.86-1.84-4.87.01-6.73l7.97-7.97c1.89-1.89,4.97-1.86,6.82.08l29.03,30.42c1.76,1.84,1.76,4.74,0,6.58l-28.32,29.71c-1.85,1.94-4.93,1.98-6.82.08l-8.32-8.32c-1.86-1.86-1.86-4.86-.01-6.73Z"/>
            </g>
            <g class="cls-6">
              <circle class="cls-13" cx="60.12" cy="45.41" r="36.52" transform="translate(-14.5 55.81) rotate(-45)"/>
            </g>
          </g>
        </g>
        <g>
          <path class="cls-12" d="m35.48,26.26l16.44,16.57c1.42,1.43,1.42,3.73,0,5.16l-16.09,16.22c-1.63,1.65-1.63,4.3.01,5.94l14.17,14.17c1.67,1.67,4.39,1.64,6.02-.07l33.91-35.57c1.55-1.63,1.55-4.18,0-5.81L55.33,6.58c-1.63-1.71-4.35-1.74-6.02-.07l-13.82,13.82c-1.64,1.64-1.64,4.3-.01,5.94Z"/>
          <g class="cls-17">
            <g class="cls-15">
              <path class="cls-20" d="m73.92,69.39c-2.4,0-4.72-.99-6.37-2.73l-15.25-15.99c-3.03-3.18-3.03-8.16,0-11.34l14.47-15.17c1.65-1.73,3.98-2.73,6.37-2.73s4.72.99,6.37,2.73l15.25,15.99c3.03,3.18,3.03,8.16,0,11.34l-14.47,15.17c-1.65,1.73-3.98,2.73-6.37,2.73Z"/>
              <path class="cls-4" d="m73.22,22.02c2.25-.03,4.63,1.14,6.18,2.77l14.93,15.65c.77.8,1.3,1.74,1.64,2.71.96,2.71.24,6.06-1.86,8.26l-14.08,14.77c-.46.49-1.04.96-1.59,1.32-1.36.87-2.97,1.34-4.59,1.29-2.25,0-4.63-1.15-6.18-2.77l-14.93-15.65c-.77-.8-1.3-1.74-1.64-2.71-.96-2.71-.24-6.06,1.86-8.26l14.08-14.77c.46-.49,1.04-.96,1.59-1.32,1.36-.87,2.97-1.27,4.59-1.29Z"/>
              <path class="cls-1" d="m73.3,22.62c2.1-.06,4.54,1.3,5.98,2.81l14.61,15.31c.75.78,1.22,1.72,1.53,2.64.85,2.54-.02,5.9-1.98,7.96l-13.69,14.36c-.43.45-1.02.95-1.54,1.29-1.32.86-2.9,1.3-4.45,1.21-2.1,0-4.54-1.3-5.98-2.81l-14.61-15.31c-.75-.78-1.22-1.72-1.53-2.64-.85-2.54.02-5.9,1.98-7.96l13.69-14.36c.43-.45,1.02-.95,1.54-1.29,1.32-.86,2.89-1.16,4.45-1.21Z"/>
              <path class="cls-19" d="m73.38,23.21c1.94-.09,4.44,1.45,5.79,2.85l14.29,14.97c.73.76,1.15,1.68,1.42,2.58.74,2.38-.27,5.75-2.09,7.67l-13.3,13.95c-.4.42-1.01.94-1.49,1.26-1.28.84-2.82,1.26-4.32,1.12-1.95,0-4.44-1.45-5.79-2.85l-14.29-14.97c-.73-.76-1.15-1.68-1.42-2.58-.74-2.38.27-5.75,2.09-7.67l13.3-13.95c.4-.42,1.01-.94,1.49-1.26,1.28-.84,2.82-1.05,4.32-1.12Z"/>
              <path class="cls-44" d="m73.46,23.8c1.79-.11,4.35,1.6,5.59,2.9l13.96,14.64c.7.74,1.07,1.65,1.31,2.51.63,2.21-.53,5.6-2.21,7.37l-12.91,13.54c-.37.39-1,.94-1.44,1.23-1.24.82-2.75,1.22-4.18,1.04-1.8,0-4.35-1.6-5.59-2.9l-13.96-14.64c-.7-.74-1.07-1.65-1.31-2.51-.63-2.21.53-5.6,2.21-7.37l12.91-13.54c.37-.39,1-.94,1.44-1.23,1.24-.82,2.74-.94,4.18-1.04Z"/>
              <path class="cls-42" d="m73.54,24.4c1.64-.13,4.26,1.75,5.4,2.94l13.64,14.3c.68.72.99,1.62,1.2,2.44.52,2.04-.78,5.45-2.33,7.07l-12.52,13.13c-.34.36-.99.93-1.39,1.2-1.2.81-2.67,1.17-4.04.95-1.65,0-4.26-1.75-5.4-2.94l-13.64-14.3c-.68-.72-.99-1.62-1.2-2.44-.52-2.04.78-5.45,2.33-7.07l12.52-13.13c.34-.36.99-.93,1.39-1.2,1.2-.81,2.66-.84,4.04-.95Z"/>
              <path class="cls-48" d="m73.63,24.99c1.49-.15,4.17,1.9,5.2,2.98l13.32,13.96c.66.69.92,1.58,1.09,2.37.42,1.87-1.04,5.3-2.44,6.77l-12.13,12.72c-.31.32-.97.92-1.34,1.17-1.16.79-2.59,1.13-3.9.86-1.5,0-4.17-1.9-5.2-2.98l-13.32-13.96c-.66-.69-.92-1.58-1.09-2.37-.42-1.87,1.04-5.3,2.44-6.77l12.13-12.72c.31-.32.97-.92,1.34-1.17,1.16-.79,2.57-.73,3.9-.86Z"/>
              <path class="cls-46" d="m73.71,25.59c1.34-.17,4.07,2.05,5,3.02l13,13.62c.64.67.84,1.55.98,2.31.32,1.69-1.29,5.14-2.56,6.47l-11.74,12.31c-.28.29-.96.91-1.29,1.14-1.12.77-2.52,1.09-3.77.78-1.35,0-4.07-2.05-5-3.02l-13-13.62c-.64-.67-.84-1.55-.98-2.31-.32-1.69,1.29-5.14,2.56-6.47l11.74-12.31c.28-.29.96-.91,1.29-1.14,1.12-.77,2.49-.62,3.77-.78Z"/>
              <path class="cls-32" d="m73.79,26.18c1.19-.18,3.98,2.2,4.81,3.06l12.68,13.29c.62.65.91,1.5.88,2.24.54,1.43-1.55,4.99-2.67,6.17l-11.35,11.9c-.25.26-.95.91-1.24,1.11-1.08.76-2.44,1.05-3.63.69-1.2,0-3.98-2.2-4.81-3.07l-12.68-13.29c-.62-.65-.91-1.5-.88-2.24-.54-1.43,1.55-4.99,2.67-6.17l11.35-11.9c.25-.26.95-.91,1.24-1.11,1.08-.76,2.4-.51,3.63-.69Z"/>
              <path class="cls-30" d="m73.87,26.77c1.03-.18,3.89,2.35,4.61,3.11l12.35,12.95c.6.63.85,1.46.77,2.17.47,1.25-1.81,4.84-2.79,5.87l-10.96,11.49c-.22.23-.93.9-1.19,1.08-1.04.74-2.37,1.01-3.49.6-1.05,0-3.89-2.35-4.61-3.11l-12.35-12.95c-.6-.63-.86-1.46-.77-2.17-.47-1.25,1.81-4.84,2.79-5.87l10.96-11.49c.22-.23.93-.9,1.19-1.08,1.04-.74,2.32-.4,3.49-.6Z"/>
              <path class="cls-28" d="m73.96,27.37c.9,0,3.8,2.5,4.42,3.15l12.03,12.61c.58.61.8,1.43.66,2.1.4,1.08-2.06,4.69-2.9,5.57l-10.57,11.08c-.19.19-.92.89-1.14,1.05-1,.73-2.29.97-3.35.52-.9,0-3.8-2.5-4.42-3.15l-12.03-12.61c-.58-.61-.8-1.43-.66-2.1-.4-1.08,2.06-4.69,2.9-5.57l10.57-11.08c.19-.19.92-.89,1.14-1.05,1-.73,2.29-.97,3.35-.52Z"/>
              <path class="cls-26" d="m74.04,27.96c.75,0,3.71,2.65,4.22,3.19l11.71,12.27c.56.58.74,1.39.55,2.04.34.9-2.32,4.54-3.02,5.27l-10.18,10.67c-.15.16-.91.89-1.09,1.02-.96.71-2.22.93-3.22.43-.75,0-3.71-2.65-4.22-3.19l-11.71-12.27c-.56-.58-.74-1.4-.55-2.04-.34-.9,2.32-4.54,3.02-5.27l10.18-10.67c.15-.16.91-.89,1.09-1.02.96-.71,2.22-.93,3.22-.43Z"/>
              <path class="cls-40" d="m74.12,28.55c.6,0,3.61,2.8,4.03,3.23l11.39,11.94c.54.56.68,1.36.44,1.97.27.72-2.57,4.38-3.14,4.97l-9.79,10.27c-.12.13-.89.88-1.03.99-.92.69-2.14.89-3.08.35-.6,0-3.61-2.8-4.03-3.23l-11.39-11.93c-.54-.56-.68-1.36-.44-1.97-.27-.72,2.57-4.38,3.14-4.97l9.79-10.27c.12-.13.89-.88,1.03-.99.92-.69,2.14-.89,3.08-.35Z"/>
              <path class="cls-38" d="m74.2,29.15c.45,0,3.52,2.95,3.83,3.28l11.06,11.6c.52.54.63,1.33.33,1.9.2.54-2.83,4.23-3.25,4.67l-9.4,9.86c-.09.1-.88.88-.98.96-.89.68-2.07.85-2.94.26-.45,0-3.52-2.95-3.83-3.28l-11.06-11.6c-.52-.54-.63-1.33-.33-1.9-.2-.54,2.83-4.23,3.25-4.67l9.4-9.86c.09-.1.88-.88.98-.96.89-.68,2.07-.85,2.94-.26Z"/>
              <path class="cls-36" d="m74.28,29.74c.3,0,3.43,3.1,3.64,3.32l10.74,11.26c.5.52.57,1.29.22,1.83.13.36-3.09,4.08-3.37,4.37l-9.01,9.45c-.06.06-.86.88-.93.93-.85.66-1.99.8-2.8.17-.3,0-3.43-3.1-3.64-3.32l-10.74-11.26c-.5-.52-.57-1.29-.22-1.83-.13-.36,3.09-4.08,3.37-4.37l9.01-9.45c.06-.06.86-.88.93-.93.85-.66,1.99-.8,2.8-.17Z"/>
              <path class="cls-34" d="m74.37,30.34c.15,0,3.34,3.25,3.44,3.36l10.42,10.92c.47.5.51,1.26.11,1.77.07.18-3.34,3.93-3.48,4.07l-8.62,9.04s-.85.87-.88.9c-.81.65-1.91.76-2.67.09-.15,0-3.34-3.25-3.44-3.36l-10.42-10.92c-.47-.5-.51-1.26-.11-1.77-.07-.18,3.34-3.93,3.48-4.07l8.62-9.04s.85-.87.88-.9c.81-.65,1.92-.76,2.67-.09Z"/>
              <path class="cls-9" d="m59.26,45.9c-.45-.48-.45-1.22,0-1.7l12.66-13.28c.69-.72,1.84-.72,2.53,0l13.34,13.99c.45.48.45,1.22,0,1.7l-12.66,13.28c-.69.72-1.84.72-2.53,0l-13.34-13.99Z"/>
            </g>
          </g>
        </g>
        <path class="cls-8" d="m71.08,27.49l-13.97,14.66c-1.55,1.63-1.55,4.18,0,5.81l14.66,15.37c1.14,1.2,3.06,1.2,4.2,0l13.97-14.66c1.55-1.63,1.55-4.18,0-5.81l-14.66-15.37c-1.14-1.2-3.06-1.2-4.2,0Z"/>
      </g>
    </g>
  </g>
</svg>